<?xml version="1.0" encoding="utf-8"?>
<!-- Generator: Adobe Illustrator 23.0.3, SVG Export Plug-In . SVG Version: 6.00 Build 0)  -->
<svg version="1.1" id="Ebene_1" xmlns="http://www.w3.org/2000/svg" xmlns:xlink="http://www.w3.org/1999/xlink" x="0px" y="0px"
	 viewBox="0 0 40 40" style="enable-background:new 0 0 40 40;" xml:space="preserve">
<style type="text/css">
	.st0{fill:#FFFFFF;}
	.st1{fill:#42253D;}
	.st2{fill:#D70B31;}
</style>
<g>
	<path d="M16.5,31.26c-0.24,0.17-0.5,0.32-0.75,0.45c-2.01,1.05-4.38,1.07-6.85,0.05l-0.7-0.29l0.41-0.64l2.42-3.82l0.18-0.29
		l0.18-0.29l1.73-2.72l0.17-0.26l-0.02-0.03l-0.18-0.34l-1.22-2.34c-0.06-0.11-0.11-0.21-0.16-0.32l-1.32,2.08l-0.18,0.28
		l-0.18,0.28l-1.59,2.5l-0.17,0.27L8.1,26.1l-3.95,6.22c4.52,2.72,8.9,3.46,12.36,2.08c0.35-0.14,0.7-0.31,1.03-0.48
		c0.32-0.17,0.63-0.35,0.93-0.55l-1.34-2.56C16.92,30.97,16.71,31.12,16.5,31.26z"/>
	<path d="M12.21,12.08c-0.09-0.54-0.13-1.08-0.16-1.68V10.4v-0.01c-0.05-2.37,1.12-4.41,3.55-6.24l0.6-0.45l0.35,0.66l2.23,4.26
		l0.16,0.3l0.16,0.3l1.49,2.86l0.17,0.32l0.01,0.02l0.35,0.02l2.38,0.1c0.23,0.01,0.46,0.02,0.69,0.03l-1.21-2.32l-0.15-0.29
		l-0.15-0.29l-1.38-2.64l-0.15-0.29l-0.15-0.28L17.61,0c-2.42,1.32-4.33,2.74-5.69,4.23c-1.41,1.55-2.27,3.22-2.54,4.97
		c-0.15,0.94-0.2,1.83-0.12,2.75L12.21,12.08z"/>
	<path d="M22.8,23.63l-0.2,0.31l-0.2,0.31l-0.28,0.44c-0.6,0.94-1.14,1.75-1.64,2.44c-0.08,0.11-0.15,0.21-0.22,0.31
		c-0.02,0.03-0.04,0.06-0.06,0.09l0.12,0.23l1.39,2.65c0.62-0.75,1.24-1.58,1.87-2.52c0.07-0.1,0.14-0.21,0.21-0.31
		c0.07-0.1,0.13-0.2,0.2-0.31c0.21-0.32,0.43-0.66,0.65-1l1.2-1.89l0.19-0.3c0,0,0-0.01-0.01-0.01c-0.05-0.11-0.09-0.21-0.14-0.32
		c-0.39-0.88-0.85-1.8-1.37-2.8L22.8,23.63z"/>
	<path d="M5.8,24.01c0.66,0.51,1.35,0.93,2.06,1.28l1.56-2.46c-0.32-0.13-0.62-0.26-0.91-0.4c-2.37-1.14-3.83-3.33-4.24-6.34
		l-0.1-0.75l0.76,0.03l4.56,0.19l0.35,0.01l0.34,0.02l3.23,0.13l0.36,0.02l0.15,0.01l0.12-0.19l1.42-2.23
		c0.1-0.16,0.2-0.32,0.3-0.47L13,12.75l-0.33-0.01l-0.33-0.01l-2.99-0.13l-0.31-0.01L8.7,12.57l-7.29-0.3
		C1.32,17.54,2.87,21.7,5.8,24.01z"/>
	<path d="M26.57,23.78h0.02l0.37,0.02l2.86,0.12c-0.32-0.88-0.72-1.79-1.18-2.77c-0.05-0.11-0.11-0.22-0.16-0.34
		c-0.05-0.11-0.11-0.22-0.16-0.33c-0.2-0.41-0.41-0.82-0.64-1.25l-0.94-1.8l-0.17-0.33l-0.08-0.15c-0.06-0.01-0.13-0.01-0.19-0.02
		c-0.85-0.07-1.84-0.12-3.02-0.17l-0.24-0.01l1.52,2.91l0.17,0.33l0.17,0.33l0.15,0.28c0.56,1.07,1.02,2.01,1.38,2.84
		C26.48,23.56,26.52,23.67,26.57,23.78z"/>
	<path d="M11.93,19.46c0.05,0.11,0.11,0.22,0.17,0.33c0.11,0.21,0.22,0.42,0.33,0.64l1.25,2.39l0.17,0.33l-0.01,0.01
		c0,0,0.01,0,0.01,0c0.11,0.01,0.23,0.02,0.34,0.03c0.88,0.09,1.82,0.14,2.84,0.19l0.28,0.01l-1.47-2.81l-0.17-0.32l-0.17-0.33
		l-0.43-0.83c-0.44-0.84-0.81-1.57-1.13-2.23c-0.06-0.11-0.11-0.23-0.16-0.34c-0.03-0.05-0.05-0.11-0.08-0.16l-0.19-0.01l-3.09-0.13
		c0.36,0.87,0.8,1.82,1.34,2.89C11.82,19.24,11.87,19.35,11.93,19.46z"/>
	<path d="M19.25,27.08l0.37,0.02l0.12,0.01c0.05-0.06,0.1-0.13,0.14-0.19c0.56-0.77,1.12-1.62,1.72-2.56l0.09-0.13l-3.28-0.14
		l-0.37-0.02l-0.37-0.02l-0.65-0.03c-1.06-0.04-1.99-0.11-2.8-0.19c-0.13-0.01-0.25-0.03-0.38-0.04l0-0.01l-0.01,0.01l-0.19,0.3
		l-1.56,2.46C13,26.7,14,26.81,15.09,26.88c0.12,0.01,0.25,0.02,0.37,0.02c0.12,0.01,0.25,0.02,0.37,0.02
		c0.35,0.02,0.7,0.04,1.06,0.05L19.25,27.08z"/>
	<path d="M37.76,20.84c-0.64-2-1.66-3.57-3.04-4.68c-0.66-0.54-1.33-0.98-2.06-1.35l-1.57,2.47c0.41,0.17,0.83,0.36,1.26,0.59l0,0
		l0.01,0c2.08,1.15,3.26,3.17,3.63,6.2l0.09,0.74l-0.75-0.03l-4.61-0.19l-0.34-0.01l-0.34-0.01l-3.2-0.13l-0.28-0.01l-0.04,0.06
		l-0.21,0.33l-1.14,1.8c-0.15,0.24-0.3,0.47-0.44,0.69l2.37,0.1l0.33,0.01l0.33,0.02l2.93,0.12l0.32,0.01l0.32,0.01l7.24,0.3
		C38.65,25.13,38.37,22.76,37.76,20.84z"/>
	<path d="M14.45,16.09l-0.1,0.16c0.02,0.05,0.05,0.11,0.08,0.16c0.34,0.7,0.74,1.49,1.22,2.41l0.26,0.5l1.76-2.77l0.2-0.31l0.2-0.31
		l0.39-0.61c0.56-0.87,1.04-1.62,1.48-2.27c0.07-0.11,0.14-0.21,0.21-0.31c0.01-0.02,0.02-0.03,0.03-0.05l-0.14-0.27l-1.37-2.63
		c-0.55,0.71-1.13,1.53-1.77,2.49c-0.07,0.1-0.13,0.2-0.2,0.31c-0.07,0.1-0.13,0.2-0.2,0.31c-0.16,0.25-0.33,0.51-0.5,0.78
		l-1.34,2.11L14.45,16.09z"/>
	<path d="M21.11,13.09l-0.37-0.02l-0.06,0c-0.06,0.08-0.11,0.16-0.17,0.25c-0.45,0.66-0.95,1.43-1.52,2.33l-0.19,0.3l3.17,0.13
		l0.37,0.02l0.37,0.02l0.6,0.03c1.09,0.04,2.02,0.09,2.83,0.15c0.13,0.01,0.25,0.02,0.37,0.03c0.06,0,0.11,0.01,0.17,0.02l0.11-0.17
		l1.64-2.58c-0.92-0.13-1.96-0.24-3.15-0.31c-0.12-0.01-0.25-0.02-0.37-0.02c-0.12-0.01-0.24-0.02-0.37-0.02
		c-0.34-0.02-0.69-0.03-1.06-0.05L21.11,13.09z"/>
	<path d="M27.86,28.07c0.03,0.24,0.05,0.47,0.06,0.7c0.2,2.62-0.96,4.98-3.37,6.84l-0.6,0.46L23.6,35.4l-2.02-3.87l-0.16-0.3
		l-0.16-0.3l-1.49-2.85l-0.16-0.31l-0.03-0.05l-0.32-0.01l-2.4-0.1c-0.23-0.01-0.47-0.02-0.69-0.03l1.17,2.23l0.15,0.29l0.16,0.29
		l1.36,2.61l0.15,0.28l0.15,0.28L22.66,40c4.62-2.56,7.45-5.97,7.98-9.67c0.1-0.73,0.13-1.44,0.1-2.14L27.86,28.07z"/>
	<path d="M24.48,8.33L24.48,8.33l0.01-0.01c0.12-0.07,0.24-0.14,0.36-0.2c1.95-1.02,4.18-0.97,6.82,0.16l0.69,0.29l-0.4,0.63
		l-2.49,3.92l-0.19,0.29L29.1,13.7l-1.72,2.71l-0.19,0.3l-0.07,0.11l0.11,0.21l1,1.91c0.16,0.31,0.32,0.62,0.47,0.91l1.43-2.25
		l0.18-0.28l0.17-0.27l1.59-2.51l0.17-0.27L32.42,14l3.84-6.06c-2.35-1.44-4.54-2.38-6.51-2.81c-2.05-0.45-3.92-0.35-5.57,0.29
		C23.71,5.6,23.29,5.79,22.89,6c-0.37,0.19-0.73,0.41-1.08,0.65l1.36,2.6C23.57,8.93,24,8.64,24.48,8.33z"/>
	<polygon points="13.66,23.46 13.65,23.46 13.65,23.46 	"/>
</g>
</svg>
