<svg id="Ebene_1" data-name="Ebene 1" xmlns="http://www.w3.org/2000/svg" xmlns:xlink="http://www.w3.org/1999/xlink" viewBox="0 0 800 800"><defs><linearGradient id="Unbenannter_Verlauf_50" x1="301.26" y1="515.89" x2="323.04" y2="370.48" gradientUnits="userSpaceOnUse"><stop offset="0" stop-color="#feca25"/><stop offset="1" stop-color="#fef39b"/></linearGradient><linearGradient id="Unbenannter_Verlauf_50-2" x1="483.25" y1="524.23" x2="444.91" y2="361.53" xlink:href="#Unbenannter_Verlauf_50"/><style>.cls-1{fill:#d51130}.cls-2{fill:#a41223}.cls-3{fill:#1c9d5b}.cls-4{fill:#1a7c47}.cls-5{fill:#b2c7d2}.cls-8{fill:#c69408}.cls-9{fill:#8ea0a8}.cls-10{fill:#fffaec}.cls-11{fill:#dfcea3}</style></defs><path class="cls-1" d="M410.5 348.34c58-84.83-15.21-138-19.77-206.23-3.87-57.78 41.54-79.33 75.11-81.58s81.45 13.07 85.32 70.85c4.56 68.18-60.89 130.68 7.89 207s102.68 196.52 111 291.44c8 90.65-145.52 101.23-159.31 102-13.77 1.08-167.3 11-171.48-79.86-4.35-95.17 13.24-218.8 71.24-303.62Z"/><path class="cls-2" d="M469.55 62.77c-34.62-4.31-82.69 21.56-78.82 79.34 4.56 68.19 77.76 121.4 19.77 206.23S339.29 556.69 339.29 652c0 87.62 154.76 82.39 154.76 79.74 0-4.1-81.8-14.23-66.46-23.15 16.44-9.55 21.53-26.68 21.73-51 .94-111-49.3-270.25-5.22-343.52 23.22-38.6-8.59-129.76-7.72-179 1.04-59.24 33.17-72.3 33.17-72.3Z"/><path class="cls-3" d="M354.93 346.64C293 264.63 363.64 208 365 139.72c1.15-57.9-45.22-77.3-78.86-78s-80.75 16.87-81.9 74.77c-1.36 68.32 67 127.68 1.84 207.16S112.72 544.81 108.84 640c-3.7 90.93 150.11 94.29 163.92 94.41 13.8.43 167.63 3.19 167.54-87.82-.09-95.27-23.46-217.94-85.37-299.95Z"/><path class="cls-4" d="M294.81 65.15c-1.16-3.56-5.86-3.35-8.67-3.4-33.64-.67-80.75 16.87-81.9 74.77-1.36 68.32 67 127.68 1.84 207.16S112.72 544.81 108.84 640c-3.7 90.92 150.1 94.29 163.92 94.41-48.87-8.6-118.24-37.41-126.06-65.57s1.66-94.67 18.3-165.34c14.34-61.08 17.56-62.17 35-101.71 19.67-44.74 40.2-76.24 45.9-110.57 10.73-64.68-7.3-70.94-3.65-147.09s52.48-78.97 52.56-78.98Z"/><path class="cls-3" d="m350.11 361.11 100.15 22.43-4.18 87.62-115.27-35.99 19.3-74.06z"/><path class="cls-5" d="M330.56 297.12c-60.24-6.11-68.72-4.46-71.32 13.8-.19 1.32-1.88 8.27-3.06 17.19-15.69-3.28-34.38 9.1-49.5 72.12-16.61 69.22 23.73 123.65 23.73 123.65-.77 5.75-1.39 10.37-1.82 13.52-1.05 7.56 2.6 26.6 64.67 36s74.85-9.91 75.63-17.21c2.52-23.48 23.2-217.47 24-226.37 1.52-18.26-7.08-27.1-62.33-32.7Zm-95.92 195c-8.95-7-11.49-56.4-7.19-81.41s12.61-55.81 19.39-55.81c4.57 0 5.22 3 5.17 5-.08.56-.15 1.11-.22 1.67-5.07 38.6-12 91.84-17.15 130.52Z"/><path d="M267.6 310s-28.66 211.29-29 214.06c-.92 6.66 2.55 18.65 57.19 26.91s65.62-4 66.31-10.38c2.22-20.67 23.42-215 23.42-215s-13 6.84-62.59.06S267.6 310 267.6 310Z" style="fill:url(#Unbenannter_Verlauf_50)"/><path class="cls-5" d="M379.12 338.23c1.17 8.85 30.76 201.68 34.36 225 1.12 7.26 14.77 26 76.34 13.71s64.34-31.42 62.95-38.93c-.58-3.13-1.42-7.72-2.45-13.43 0 0 37.8-56.23 18-124.61-18-62.25-37.25-73.76-52.77-69.76-1.59-8.85-3.6-15.72-3.85-17-3.44-18.12-16.89-18.26-71.88-10.5s-63.11 17.36-60.7 35.52ZM544.64 493c-6.89-38.4-16.31-91.27-23.15-129.59l-.3-1.66c-.15-2 .36-5 4.93-5.26 6.77-.31 16.49 30.05 21.94 54.86s5.19 74.25-3.42 81.65Z"/><path d="M447.7 333.22c-49.19 9.06-61.42 2-61.42 2s30.13 191.56 33.3 212.1c1 6.39 12.52 18.09 66.72 7.32s57.12-22.91 55.89-29.52L503.32 316s-6.44 8.17-55.62 17.22Z" style="fill:url(#Unbenannter_Verlauf_50-2)"/><path class="cls-3" d="M232.51 290.65C213 310.88 138.22 321 138.22 373.76c0 57.89 45 70.8 68.46 70.8 20.34 0 39.23-3.51 43.11-35.6 2.22-18.38-6.19-39.5-13.89-30.64s-16.7 4.69-19.31-2.09.81-13.83.81-13.83 2.51-6.2-3.73-7.55c-6.56-1.43-6.21 6.39-10.9 9.91-12.52 9.39 50.98-96.12 29.74-74.11Z"/><path class="cls-4" d="M138.22 373.76c0 39.33 18.31 45.42 20.23 35.19s-24.69-69.31 30.14-69.31c11.51 0 36.37-14.21 36.82-17.39a56.55 56.55 0 0 1 11.78-26.86s3.26-6.65.91-9.26-5.59 4.52-5.59 4.52C213 310.88 138.22 321 138.22 373.76Z"/><path class="cls-1" d="M216.73 323.39c20.8-12.89 30-31.92 16.82-42.83-10.11-8.39-28.46-8.18-45.73 5S163 318 171 328.43s27.25 6.41 45.73-5.04Z"/><path class="cls-2" d="M227 276.76c-10.46-4.05-25.18-1.88-39.19 8.84C170.55 298.82 163 318 171 328.42c0 0-4.2-27.52 56-51.66Z"/><path class="cls-1" d="m505.02 284.96 48.51 67.28 55.81 5.22-96.49-83.98-7.83 11.48z"/><path class="cls-1" d="M529.22 286.66c20.45 19.3 96.54 25.84 99 78.6 2.71 57.82-41.62 72.83-65.06 73.93-20.32 1-34.65-1.64-43-29.44-4.37-14.55 10.21-43.58 17.46-34.47s14.45 5.15 18.7-.74-.11-12-.11-12 .44-8.89 13.38-.1"/><path class="cls-3" d="M544.2 318.21c-21.38-11.91-31.41-30.48-18.81-42 9.7-8.86 28.05-9.51 45.92 2.89s26.29 31.19 18.81 42-26.92 7.68-45.92-2.89Z"/><path class="cls-4" d="M536.32 287.28c-.33-5.92 7.73-12.68 13.73-16.85-10-1.59-18.87.74-24.66 6-12.6 11.51-2.57 30.08 18.81 42 8.47 4.72 17 7.94 24.56 9.11-17.22-14.3-32.01-32.47-32.44-40.26Z"/><path class="cls-2" d="M565 432.06c-18.77-.82-41.68-10.53-31.12-50.43 2.34-8.86 5 16.34 24.06.34 12.13-10.17 6.78-15.12 6.78-15.12s11.35 1.95 14.09-3.66c2-4.15-6.7-10.92-12.68-16.74-19.69-19.17-25.25-15.27-25.4-15.07 5 5.16 30.19 32 28.85 31.05-12.94-8.79-15.11-.54-15.11-.54s4.3 7.78.9 12.65a10.73 10.73 0 0 1-17.76.27c-7-9.39-22.85 19.88-19.49 34.69 6.34 28 24.38 30.5 44.72 30.32 45.57-.4 65.84-41.95 58.45-45.64.02 0-33.44 38.87-56.29 37.88Z"/><ellipse class="cls-8" cx="327.81" cy="310.54" rx="8.7" ry="58.75" transform="rotate(-83.14 327.805 310.544)"/><ellipse class="cls-8" cx="443.36" cy="315.34" rx="58.75" ry="9.74" transform="rotate(-10.36 443.458 315.402)"/><path class="cls-4" d="M201.79 444.56C229 445.88 248.17 439 252 407.82c2.16-17.69-6-32.42-13.32-33.3-1.58-.19-2.64-.7-3.51 2-1.58 4.92-9.76 5.16-15.19.59-6.08-5.13-2.53-14.75-2.53-14.75s-13.66 14.7 2.44 22.68c12.39 6.14 19.1-4.92 22.35-.41 4.33 6 5.94 16.26 5.69 21.75s-3.1 15.4-14.73 22.58c-17.1 10.57-56.2-7.11-61.72-5.96s7.8 20.47 30.31 21.56Z"/><path class="cls-9" d="M382.48 336.4c41.25 7.15 98.48-4.42 116.17-16.9s8.8-19.51 1.73-14.59c-4.23 3-24 26.74-119 26.06-.03.03-5.74 3.48 1.1 5.43ZM390.63 324.13c-40.76 9.56-98.58 1.39-117-10s-9.93-19-2.59-14.46c4.4 2.7 25.53 25.28 120.37 19 .03-.02 5.93 3.11-.78 5.46Z"/><path class="cls-10" d="M265.82 300.89c-3.72-9.58-13.14-17.2-2.53-39.51 8.57-18 30.06-6.74 37.42-4.49 3.91 1.19 19.84-4.32 33.49-2.64 12.09 1.49 20.15 9.84 23.32 11.66 6.75 3.88 17.58 1.28 24.31 2.86s15.79 10.43 17.69 17.4c2.21 8.14-2.91 30.07-15.26 33.75-4.18 1.25-36.93 6.66-64 2-29.96-5.18-50.72-11.46-54.44-21.03Z"/><path class="cls-11" d="M267.27 300.5c-3.6-8.89-8.64-15.74-7-25.91 1-6.49 3.55-14.46 8.38-19.15 4-3.85 8.71-4.14 13.93-3.31a69 69 0 0 1 12.89 3.78c4 1.49 6.73 1.57 11 .87 14.37-2.34 28.29-4.68 41.29 3.57 4 2.51 7.35 6.19 12 7.4 6.57 1.71 13.46-.09 20.05 1.29 10.48 2.2 19.4 13.6 18.69 24.19-.59 8.92-4.72 22.82-13.89 26.58-3.91 1.61-9.39 1.62-13.53 2.1q-10.51 1.21-21.12 1.44c-18.09.35-35.9-2.53-53.38-7.06-9.3-2.42-25-5.76-29.3-15.79-.07-.15-2.85.88-2.9.77 4.13 9.65 18.88 13 27.85 15.41 17.36 4.65 35.21 7.69 53.21 7.47 12.05-.14 24.59-.89 36.38-3.58 8.3-1.9 13.4-7.19 16.57-15.15a38.86 38.86 0 0 0 3-16.65c-.44-6.29-4.89-11.69-9.56-15.59-6-5-11.72-5.35-19.26-5.36-6.66 0-11.77-.8-17.09-4.82-5.5-4.14-11.42-7.68-18.3-8.9-8.16-1.46-16.65 0-24.72 1.37-4.89.83-8.74 1.67-13.43-.06s-9.57-3.55-14.64-4.2a27.55 27.55 0 0 0-11.59 1.06c-6.59 2-10 6.72-12.5 12.9-2.81 6.83-4.45 14.31-2.47 21.58 1.4 5.18 4.51 9.6 6.51 14.52.08.14 2.89-.86 2.93-.77Z"/><path class="cls-11" d="M375.3 325.36s-17.37-6.43-13.58-29c4.21-25 30.4-14.91 38.42-15.23 4.25-.16 17.94-9.88 31.93-12.62 12.39-2.44 23.24 2.35 27 3 8 1.3 17.7-4.31 24.86-5s19.17 4.22 23.5 9.71c5 6.4 7.19 25.71-3.63 32.73-3.67 2.37-32.28 14.65-60.46 18.92-31.25 4.73-68.04-2.51-68.04-2.51Z"/><path class="cls-10" d="M381.35 331c-5.86-4.69-18.89-11.64-16.35-34.35 2.05-18.35 27.12-15.14 35.14-15.46 4.25-.16 17.94-9.88 31.93-12.62 12.39-2.44 23.24 2.35 27 3 8 1.3 17.7-4.31 24.86-5s19.17 4.22 23.5 9.71c5 6.4 7.19 27.62-3.63 34.63-3.67 2.38-14.42 13-60.44 21.68-30.21 5.6-56.16 3.07-62.01-1.59Z"/><path class="cls-11" d="M382.79 330.59c-7.84-6.19-14.45-12.06-16.18-22.52-1-6.15-1.23-14.2 2.69-19.46 3.33-4.47 8.63-6.19 13.95-6.75 6.41-.67 13.15.69 19.36-1.25 5.62-1.75 10.78-5.06 16.15-7.47 9.91-4.44 19.41-6 30-3.57 6.37 1.44 11.2 3.17 17.84 1.62 4-.94 7.88-2.4 11.87-3.48 7.52-2 15.34.28 21.89 4.22 5.1 3.07 7.7 7.05 8.94 12.8 2.14 9.91.73 21-7.93 27.19a80.67 80.67 0 0 1-14.91 8.48c-19.28 8.37-41.05 12.77-61.95 14.44a141.1 141.1 0 0 1-27-.16c-4.77-.54-10.67-1.13-14.68-4.09-.51-.38-2.41 1.13-2.89.77 4 3 9.89 3.55 14.68 4.1a141.09 141.09 0 0 0 27 .15c16.07-1.27 32-4.68 47.49-9 10-2.8 20.14-6.14 29.15-11.44 6.3-3.7 12-7.86 13.87-15.38a34.58 34.58 0 0 0-1-19.66c-2.4-6.53-8.64-10-14.94-12.24a26.2 26.2 0 0 0-16.25-.63c-7.12 1.88-14.11 5.29-21.55 3.36-8.32-2.16-16.25-4.08-24.9-2.44a74.79 74.79 0 0 0-13.16 3.82c-4.05 1.59-8 3.5-11.87 5.43-2.25 1.12-5.93 3.13-7.41 3.33-4.85.66-10-.22-14.9.3-9.92 1-21.08 4.55-22.6 15.92-1.08 8 .1 16.74 4.75 23.54 3.08 4.49 7.39 7.5 11.6 10.81.48.41 2.44-1.1 2.89-.74Z"/><path class="cls-10" d="M405.16 327.93c-5.18 15.12-16 1.64-9.72 51.13 1.82 14.22-.72 39.73-7.14 46.69-9.07 9.82-27.7 2.78-18.32-16.67 9.74-20.16 13.65-64.24 5.69-75.47-26.13-36.9-6.47-52 8-52.91 19.19-1.18 32.41 15.37 21.49 47.23Z"/><path d="M757.65 645s-206.46 17.69-354.11 17.69S49.42 645 49.42 645V500.71S317.5 483 403.54 483s354.11 17.69 354.11 17.69Z" style="fill:#3c3c3b"/><path class="cls-10" d="M349.33 561.25 364 574.64c8.27 7.34 10.07 13.53 10.07 26.2 0 13.61-7.48 20.3-24 20.3s-24-6.69-24-20.3v-10.36c0-2.88 1.59-4.61 4.47-4.61h7.63c2.88 0 4.46 1.73 4.46 4.61v10.36c0 4.47 2.09 7.49 7.49 7.49s7.48-3 7.48-7.49c0-7.34-1.08-10.87-6.69-16l-14.83-13.39c-8.35-7.34-10.08-13.46-10.08-26.2 0-13.61 7.49-20.3 24-20.3s24 6.69 24 20.3v10.37c0 2.88-1.58 4.46-4.46 4.46h-7.63c-2.88 0-4.46-1.58-4.46-4.46v-10.35c0-4.46-2.09-7.49-7.49-7.49s-7.49 3-7.49 7.49c.17 7.34 1.17 10.87 6.86 15.98ZM103.07 602.5c-2.73 0-4.17-1.44-4.6-3.53l-7.71-46.79h-1.08l1.16 18.5v45.21a4.24 4.24 0 0 1-4.61 4.6h-5.47a4.24 4.24 0 0 1-4.61-4.6V530c0-2.88 1.73-4.47 4.61-4.47h12.81c2.88 0 4.18 1.44 4.75 4.32l5.4 28.15 3.17 22.39H108l3-22.39 5.47-28.15c.36-2.88 1.8-4.32 4.75-4.32h12.88c2.73 0 4.61 1.59 4.61 4.47v85.88a4.24 4.24 0 0 1-4.61 4.6h-5.47a4.24 4.24 0 0 1-4.61-4.6v-45.2l1.15-18.5h-1.08L116.25 599c-.29 2.09-1.73 3.53-4.47 3.53ZM183.7 616.39l-1.95-14.69h-16.63l-1.8 14.69a4.2 4.2 0 0 1-4.6 4h-7.06c-3.31 0-4.82-2.37-4.32-5.47l13-85.09c.36-3.16 2.09-4.32 4.75-4.32h17.06c2.59 0 4.18 1.16 4.61 4.32l13 85.09c.5 3.31-1.08 5.47-4.32 5.47h-7.2c-2.17.03-4.33-.98-4.54-4Zm-17.06-27.5H180l-2.59-20.15-3.36-31.74h-1.15l-3.39 31.75ZM241.43 530c0-2.88 1.72-4.47 4.6-4.47h6.55c2.88 0 4.47 1.59 4.47 4.47v85.88c0 2.87-1.59 4.6-4.47 4.6h-8.27c-2.74 0-3.82-1.44-4.61-3.38l-10.87-35.27-5.76-21.6-1.15.15 1.73 22.31v33.19c0 2.87-1.59 4.6-4.47 4.6h-6.55a4.23 4.23 0 0 1-4.6-4.6V530c0-2.88 1.72-4.47 4.6-4.47h8.14a4.39 4.39 0 0 1 4.6 3.39l10.87 35.27L242 585.8l1.15-.15-1.72-22.31ZM300.81 530c0-2.88 1.73-4.47 4.61-4.47H312c2.88 0 4.46 1.59 4.46 4.47v85.88c0 2.87-1.58 4.6-4.46 4.6h-8.28c-2.73 0-3.81-1.44-4.6-3.38l-10.87-35.27-5.76-21.6-1.15.15L283 582.7v33.19c0 2.87-1.58 4.6-4.46 4.6H272a4.24 4.24 0 0 1-4.61-4.6V530c0-2.88 1.73-4.47 4.61-4.47h8.13a4.4 4.4 0 0 1 4.61 3.39l10.87 35.27 5.76 21.6 1.15-.15-1.73-22.31V530ZM423.49 570.75c2.88 0 4.61 1.58 4.61 4.46v25.56c0 13.6-7.63 20.3-24.11 20.3s-24-6.7-24-20.3V545.2c0-13.61 7.48-20.3 24-20.3s24.11 6.69 24.11 20.3v8.63a4.24 4.24 0 0 1-4.61 4.61H416a4.24 4.24 0 0 1-4.61-4.61v-8.63c0-4.47-2.09-7.49-7.49-7.49s-7.34 3-7.34 7.49v55.57c0 4.46 1.95 7.49 7.34 7.49s7.49-3 7.49-7.49v-17.21h-3.17c-2.88 0-4.46-1.72-4.46-4.6v-3.82c0-2.88 1.58-4.46 4.46-4.46h15.26ZM486.27 545.2v55.57c0 13.6-7.64 20.3-24.12 20.3s-24-6.7-24-20.3V545.2c0-13.61 7.49-20.3 24-20.3s24.12 6.69 24.12 20.3Zm-36.93-43.12a7.56 7.56 0 0 1 8 8c0 4.75-3.31 7.84-8 7.84s-8-3.16-8-7.84 3.1-8 8-8Zm5.47 43.12v55.57c0 4.46 1.94 7.49 7.34 7.49s7.49-3 7.49-7.49V545.2c0-4.47-2.09-7.49-7.49-7.49s-7.34 3.02-7.34 7.49Zm20.08-43.12c4.82 0 8 3.17 8 8s-3.17 7.84-8 7.84-7.84-3.16-7.84-7.84 3.09-8 7.84-8ZM649.24 525.54c2.88 0 4.61 1.59 4.61 4.47v3.81a4.24 4.24 0 0 1-4.61 4.61h-19.8v28.15h14.83c2.88 0 4.61 1.58 4.61 4.46v3.81a4.24 4.24 0 0 1-4.61 4.61h-14.83v28.15h19.8c2.88 0 4.61 1.58 4.61 4.46v3.82a4.24 4.24 0 0 1-4.61 4.6h-31.82a4.24 4.24 0 0 1-4.61-4.6V530c0-2.88 1.73-4.47 4.61-4.47ZM678.82 607.61h19.8c2.88 0 4.61 1.58 4.61 4.46v3.82a4.24 4.24 0 0 1-4.61 4.6H666.8a4.23 4.23 0 0 1-4.6-4.6V530c0-2.88 1.72-4.47 4.6-4.47h7.49c2.88 0 4.61 1.59 4.61 4.47v77.6ZM727.85 615.89a4.24 4.24 0 0 1-4.61 4.6h-7.49a4.24 4.24 0 0 1-4.61-4.6V530c0-2.88 1.73-4.47 4.61-4.47h7.49c2.88 0 4.61 1.59 4.61 4.47ZM578.62 524.9c-16.48 0-24.11 6.69-24.11 20.3v8.63a4.23 4.23 0 0 0 4.6 4.61h7.49a4.24 4.24 0 0 0 4.61-4.61v-8.63c0-4.47 2.08-7.49 7.48-7.49s7.35 3 7.35 7.49v55.57c0 4.46-1.95 7.49-7.35 7.49s-7.48-3-7.48-7.49v-17.13h3.16c2.88 0 4.47-1.73 4.47-4.61v-3.82c0-2.88-1.59-4.46-4.47-4.46h-34.48v-.07h-15.26c-2.88 0-4.46 1.58-4.46 4.46V579c0 2.88 1.58 4.6 4.46 4.6h3.17v17.21c0 4.46-2.09 7.49-7.49 7.49s-7.34-3-7.34-7.49V545.2c0-4.47 1.94-7.49 7.34-7.49s7.49 3 7.49 7.49v8.63a4.24 4.24 0 0 0 4.61 4.61h7.48a4.24 4.24 0 0 0 4.61-4.61v-8.63c0-13.61-7.63-20.3-24.11-20.3s-24 6.69-24 20.3v55.57c0 13.6 7.49 20.3 24 20.3s24.11-6.7 24.11-20.3v-17.13h10v17.13c0 13.6 7.63 20.3 24.11 20.3s24-6.7 24-20.3V545.2c-.02-13.61-7.5-20.3-23.99-20.3Z"/></svg>