<?xml version="1.0" encoding="utf-8"?>
<!-- Generator: Adobe Illustrator 23.0.6, SVG Export Plug-In . SVG Version: 6.00 Build 0)  -->
<svg version="1.1" id="Ebene_1" xmlns="http://www.w3.org/2000/svg" xmlns:xlink="http://www.w3.org/1999/xlink" x="0px" y="0px"
	 viewBox="0 0 144.2 40" style="enable-background:new 0 0 144.2 40;" xml:space="preserve">
<style type="text/css">
	.st0{fill:#FFFFFF;}
</style>
<path class="st0" d="M5.7,13.5C5.9,14,6,14.6,6,15.1c0,0.3,0,0.5-0.1,0.8c-0.7,0.1-1.5,0.2-2.3,0.2c-2,0-2.7-1-2.7-3V0.2L1,0h1.3
	c1.3,0,1.8,0.5,1.8,2v10.5c0,0.7,0.3,1,1,1H5.7z"/>
<path class="st0" d="M7.3,7.9c0-0.8-0.1-1.6-0.5-2.2C7.2,5.3,8,5,8.9,5c1.4,0,1.8,0.7,1.8,2.1v4.6c0,1,0.2,1.5,0.9,1.5
	c0.4,0,1-0.2,1.6-0.7V5.2C13.7,5.1,14.3,5,14.9,5c0.6,0,1.2,0,1.7,0.1v7.7c0,0.7,0.2,1.3,0.6,1.6c-0.1,0.6-0.6,1.4-1,1.7
	c-1.2,0-2.1-0.6-2.6-1.5c-0.9,0.8-2,1.5-3.3,1.5c-2,0-3-1.6-3-3.9V7.9z"/>
<path class="st0" d="M21.6,9.7c0.5-0.7,1.3-1.5,1.8-2l-0.1-0.1c-0.8,0.1-1.9,0.2-2.7,0.2h-1.7c-0.1-0.3-0.1-0.7-0.1-1
	c0-0.5,0.1-1,0.2-1.5h7.6C26.8,6,27,6.5,27,7c0,0.3-0.1,0.7-0.3,1L24,11.6c-0.5,0.6-1.1,1.4-1.6,2l0.1,0.1c0.6-0.1,1.2-0.1,1.7-0.1
	h0.8c0.7,0,1.4-0.1,2-0.4c0.2,0.6,0.3,0.9,0.3,1.4c0,0.9-0.5,1.5-1.8,1.5h-6.6c-0.3-0.8-0.4-1.3-0.4-1.7c0-0.4,0.1-0.8,0.5-1.3
	L21.6,9.7z"/>
<path class="st0" d="M31.7,11.7c0.1,1.2,0.5,2.1,2,2.1c1,0,1.9-0.3,2.8-0.7c0.5,0.5,0.8,1.3,0.9,2c-1.1,0.8-2.7,1.2-4.3,1.2
	c-3.8,0-4.9-2.8-4.9-5.7c0-3.3,1.4-5.8,4.9-5.8c2.9,0,4.5,2,4.5,4.6c0,1-0.1,1.5-0.3,2.2H31.7z M31.7,9.3h2.9V9.1
	c0-1-0.4-1.8-1.4-1.8C32.2,7.2,31.8,7.9,31.7,9.3z"/>
<path class="st0" d="M39.9,5c1.4,0.1,2.3,0.8,2.8,2c0.5-1.1,1.3-2,2.7-2c0.7,0,1,0.1,1.4,0.2c0,0.8-0.3,2.2-0.8,3.2
	c-0.4-0.1-0.7-0.2-1.1-0.2c-0.8,0-1.3,0.4-1.8,1.1V16c-0.5,0.1-1.1,0.1-1.7,0.1c-0.6,0-1.2,0-1.7-0.1V9c0-1.3-0.5-2-0.8-2.3
	C39,6.1,39.5,5.3,39.9,5z"/>
<path class="st0" d="M57.5,13.3c0,0.8,0.1,1.6,0.5,2.2c-0.5,0.4-1.3,0.7-2.1,0.7c-1.4,0-1.8-0.7-1.8-2.1V9.4c0-1-0.2-1.4-0.9-1.4
	c-0.4,0-1,0.2-1.6,0.7V16c-0.5,0.1-1.1,0.1-1.7,0.1c-0.6,0-1.2,0-1.7-0.1V5.2L48.3,5h1.3c0.9,0,1.5,0.5,1.8,1.3
	C52.2,5.5,53.2,5,54.5,5c2,0,3,1.6,3,3.9V13.3z"/>
<path class="st0" d="M62.7,11.7c0.1,1.2,0.5,2.1,2,2.1c1,0,1.9-0.3,2.8-0.7c0.5,0.5,0.8,1.3,0.9,2c-1.1,0.8-2.7,1.2-4.3,1.2
	c-3.8,0-4.9-2.8-4.9-5.7c0-3.3,1.4-5.8,4.9-5.8c2.9,0,4.5,2,4.5,4.6c0,1-0.1,1.5-0.3,2.2H62.7z M62.7,9.3h2.9V9.1
	c0-1-0.4-1.8-1.4-1.8C63.1,7.2,62.8,7.9,62.7,9.3z"/>
<path class="st0" d="M70.9,5c1.4,0.1,2.3,0.8,2.8,2c0.5-1.1,1.3-2,2.7-2c0.7,0,1,0.1,1.4,0.2c0,0.8-0.3,2.2-0.8,3.2
	c-0.4-0.1-0.7-0.2-1.1-0.2c-0.8,0-1.3,0.4-1.8,1.1V16c-0.5,0.1-1.1,0.1-1.7,0.1c-0.6,0-1.2,0-1.7-0.1V9c0-1.3-0.5-2-0.8-2.3
	C70,6.1,70.5,5.3,70.9,5z"/>
<path class="st0" d="M0.9,31.9c1,0.5,2.2,0.9,3,0.9c0.8,0,1.3-0.3,1.3-0.8c0-0.4-0.3-0.7-1-1L3,30.6c-1.5-0.6-2.7-1.5-2.7-3.3
	c0-2.2,1.7-3.6,4.2-3.6c1.3,0,3,0.4,4,0.9c0,0.8-0.4,2-0.9,2.4c-0.9-0.4-2-0.8-3-0.8c-0.6,0-0.9,0.3-0.9,0.7c0,0.4,0.2,0.6,0.8,0.8
	l1.3,0.5c1.7,0.6,2.9,1.7,2.9,3.5c0,2.2-1.7,3.5-4.4,3.5c-1.7,0-3.3-0.5-4.3-1.1C0,33.5,0.4,32.4,0.9,31.9z"/>
<path class="st0" d="M15.8,35.2c-0.8,0-1.4-0.2-2-0.5v2.9c0,1.5-0.5,2-1.9,2h-1.3l-0.2-0.2V24.1l0.2-0.2h0.9c0.8,0,1.5,0.4,1.8,1.1
	c0.7-0.7,1.8-1.2,2.9-1.2c2.7,0,3.9,2.3,3.9,5.6C20.2,33.1,18.2,35.2,15.8,35.2z M13.8,27.4v4.8c0.5,0.3,1,0.5,1.4,0.5
	c1,0,1.5-1.3,1.5-3.3c0-2-0.5-2.9-1.3-2.9C15,26.5,14.3,26.7,13.8,27.4z"/>
<path class="st0" d="M26,34.9c-0.5,0.1-1.1,0.1-1.7,0.1c-0.6,0-1.2,0-1.7-0.1v-7.2c0-0.7-0.3-1.3-1-1.3h-0.3
	c-0.1-0.4-0.1-0.7-0.1-1.2c0-0.4,0-0.8,0.1-1.2c0.7-0.1,1.4-0.1,1.9-0.1h0.5c1.4,0,2.4,1,2.4,2.6V34.9z M22.2,19.7
	c0.4-0.2,1-0.3,1.6-0.3c0.6,0,1.3,0.2,1.6,0.3c0.2,0.4,0.3,0.9,0.3,1.3c0,0.4-0.1,0.9-0.3,1.3c-0.3,0.2-1,0.3-1.6,0.3
	c-0.6,0-1.3-0.1-1.6-0.3c-0.2-0.4-0.3-0.9-0.3-1.3C21.9,20.6,22,20.1,22.2,19.7z"/>
<path class="st0" d="M31.2,30.6c0.1,1.2,0.5,2.1,2,2.1c1,0,1.9-0.3,2.8-0.7c0.5,0.5,0.8,1.3,0.9,2c-1.1,0.8-2.7,1.2-4.3,1.2
	c-3.8,0-4.9-2.8-4.9-5.7c0-3.3,1.4-5.8,4.9-5.8c2.9,0,4.5,2,4.5,4.6c0,1-0.1,1.5-0.3,2.2H31.2z M31.2,28.3h2.9V28
	c0-1-0.4-1.8-1.4-1.8C31.7,26.2,31.3,26.9,31.2,28.3z"/>
<path class="st0" d="M43.9,32.5c0.2,0.5,0.3,1.1,0.3,1.6c0,0.3,0,0.5-0.1,0.8c-0.7,0.1-1.5,0.2-2.4,0.2c-2,0-2.7-1-2.7-3V19.1
	l0.1-0.2h1.3c1.3,0,1.8,0.5,1.8,2v10.5c0,0.7,0.3,1,1,1H43.9z"/>
<path class="st0" d="M52.1,25.2c0,0.4,0,0.8-0.1,1.2l-2.6,0v5c0,0.7,0.3,1,1,1h1.2c0.2,0.5,0.3,1.1,0.3,1.6c0,0.3,0,0.5-0.1,0.8
	c-0.8,0.1-2,0.2-2.8,0.2c-2,0-2.9-1-2.9-3v-5.6l-1.7,0c-0.1-0.4-0.2-0.8-0.2-1.2c0-0.4,0-0.8,0.2-1.2l1.7,0v-1.3c0-1.5,0.5-2,1.8-2
	h1.3l0.2,0.2v3.2l2.6,0C52.1,24.5,52.1,24.9,52.1,25.2z"/>
<path class="st0" d="M61.9,35.1c-1.1,0-1.9-0.5-2.4-1.2c-0.8,0.7-1.8,1.3-3.2,1.3c-2.2,0-3.3-1.7-3.3-3.3c0-2.6,2.1-3.8,4.3-3.8
	c0.4,0,1,0,1.5,0v-0.4c0-0.9-0.4-1.4-1.4-1.4c-0.9,0-2.1,0.3-3.2,0.7c-0.5-0.6-0.7-1.5-0.8-2.4c1.5-0.6,3.6-1,5-1
	c1.9,0,3.9,1,3.9,3.7V32c0,0.6,0.2,1.1,0.6,1.4C62.8,34,62.3,34.8,61.9,35.1z M58.9,32.1v-1.7c-0.4,0-0.9,0-1.2,0
	c-1,0-1.4,0.6-1.4,1.4c0,0.6,0.4,1,1,1C57.8,32.8,58.4,32.6,58.9,32.1z"/>
<path class="st0" d="M68.4,23.8c1.3,0,2.2,0.5,2.9,1c0.5-0.5,1.2-0.8,2-0.9c0.4,0.3,1,1.1,1,1.7c-0.4,0.3-0.6,0.9-0.6,1.6V33
	c0,3-0.4,4.3-1.1,5.2c-0.9,1.1-2.3,1.6-4.1,1.6c-1.4,0-3-0.3-4.1-0.7c0-0.8,0.3-1.9,0.8-2.5c0.9,0.4,2,0.7,3,0.7
	c1.6,0,2.2-0.9,2.2-2.2v-0.7c-0.7,0.5-1.6,0.8-2.5,0.8c-2.7,0-3.9-2.3-3.9-5.6C64.1,25.8,66,23.8,68.4,23.8z M70.4,27
	c-0.5-0.5-1-0.7-1.4-0.7c-1.1,0-1.5,1.2-1.5,3.3c0,2,0.5,2.9,1.3,2.9c0.6,0,1.1-0.2,1.6-0.7v-4.5V27z"/>
<path class="st0" d="M79,30.6c0.1,1.2,0.5,2.1,2,2.1c1,0,1.9-0.3,2.8-0.7c0.5,0.5,0.8,1.3,0.9,2c-1.1,0.8-2.7,1.2-4.3,1.2
	c-3.8,0-4.9-2.8-4.9-5.7c0-3.3,1.4-5.8,4.9-5.8c2.9,0,4.5,2,4.5,4.6c0,1-0.1,1.5-0.3,2.2H79z M79,28.3h2.9V28c0-1-0.4-1.8-1.4-1.8
	C79.4,26.2,79.1,26.9,79,28.3z"/>
</svg>
