<?xml version="1.0" encoding="utf-8"?>
<!-- Generator: Adobe Illustrator 18.0.0, SVG Export Plug-In . SVG Version: 6.00 Build 0)  -->
<!DOCTYPE svg PUBLIC "-//W3C//DTD SVG 1.1//EN" "http://www.w3.org/Graphics/SVG/1.1/DTD/svg11.dtd">
<svg version="1.1" id="Ebene_1" xmlns="http://www.w3.org/2000/svg" xmlns:xlink="http://www.w3.org/1999/xlink" x="0px" y="0px"
	 viewBox="0 0 303.4 207.6" enable-background="new 0 0 303.4 207.6" xml:space="preserve">
<g>
	<g>
		<path fill="#FFCC00" d="M28,182.8c-0.6,0.2-1.1,0.4-1.5,0.6c-0.4,0.1-0.8,0.3-1.2,0.4s-1,0.3-1.7,0.5c-1.3,0.3-2.5,0.5-3.8,0.7
			c-1.3,0.2-2.6,0.2-4,0.2c-2.8,0-5.4-0.5-7.8-1.5c-2.4-1-4.3-2.6-5.7-4.8c-1.4-2.2-2.2-4.8-2.2-8c0-2,0.4-4,1.1-6
			c0.7-2,1.9-3.5,3.4-4.7c1.3-1,2.5-1.7,3.8-2.2c1.3-0.5,2.5-0.9,3.8-1c1.2-0.2,2.6-0.3,4.1-0.3c2.4,0,4.5,0.2,6,0.5
			c1.6,0.4,3.3,0.9,5.2,1.5v6.6c-1.3-0.7-2.6-1.3-4-1.8s-3.1-0.7-5.2-0.7c-2.4,0-4.3,0.5-5.8,1.4c-1.4,0.9-2.5,2-3,3.3
			c-0.6,1.3-0.9,2.5-0.9,3.7c0,1.4,0.3,2.7,1,3.9c0.7,1.2,1.6,2.1,3,2.8s2.9,1.1,4.8,1.1c1.1,0,2.2-0.1,3.4-0.4V175h-3.8v-5.6H28
			V182.8z"/>
		<path fill="#FFCC00" d="M64.4,184.8h-8.6l-2.3-5.6H41.6l-2.3,5.6h-8.6L43,157h9.2L64.4,184.8z M51.7,174.3l-4.1-10.1l-4.1,10.1
			H51.7z"/>
		<path fill="#FFCC00" d="M100.4,184.8H92v-16.1l-7.5,9.3h-0.7l-7.6-9.3v16.1h-8.1V157h7.6l8.5,10.4l8.6-10.4h7.6V184.8z"/>
		<path fill="#FFCC00" d="M128.3,184.8h-20.9V157H128v5.6h-12.2v5.1h11.7v5.6h-11.7v5.9h12.6V184.8z"/>
		<path fill="#262F38" d="M163.6,170.9c0,2.6-0.6,5-1.8,7.1c-1.2,2.2-3,3.9-5.3,5.2s-5.2,1.9-8.6,1.9c-3.4,0-6.3-0.7-8.7-2
			c-2.4-1.3-4.1-3.1-5.3-5.3s-1.7-4.5-1.7-7c0-2.5,0.6-4.8,1.7-7c1.1-2.2,2.9-3.9,5.3-5.2c2.4-1.3,5.3-2,8.7-2
			c2.6,0,4.8,0.4,6.9,1.1s3.7,1.8,5,3.1c1.3,1.3,2.3,2.8,2.9,4.5C163.3,167.1,163.6,169,163.6,170.9z M155.1,170.9
			c0-1-0.2-2-0.5-2.9c-0.3-0.9-0.8-1.6-1.4-2.2c-0.6-0.6-1.4-1.1-2.3-1.5c-0.9-0.4-1.9-0.5-3.1-0.5c-2.2,0-4,0.7-5.3,2
			s-1.9,3-1.9,5.1s0.6,3.8,1.9,5.2s3,2,5.3,2c1.5,0,2.8-0.3,3.9-0.9c1.1-0.6,1.9-1.4,2.5-2.5C154.8,173.5,155.1,172.2,155.1,170.9z"
			/>
		<path fill="#262F38" d="M195.7,184.8h-9l-2.2-4.9c-0.8-1.8-1.5-3.1-2.2-4c-0.6-0.8-1.3-1.4-1.9-1.6c-0.6-0.2-1.4-0.3-2.4-0.3h-0.9
			v10.8h-8.4V157h14.2c2.3,0,4.2,0.5,5.6,1.4c1.5,0.9,2.5,2.1,3.2,3.4c0.6,1.3,1,2.6,1,3.8c0,1.4-0.3,2.6-0.8,3.6
			c-0.5,1-1.1,1.7-1.7,2.1s-1.3,0.9-2,1.3c0.9,0.5,1.6,1.1,2.2,1.9c0.6,0.7,1.4,2.2,2.4,4.3L195.7,184.8z M184.3,165.8
			c0-1.3-0.4-2.2-1.3-2.7c-0.8-0.5-2.2-0.8-4.1-0.8h-1.8v6.7h1.8c2,0,3.4-0.2,4.2-0.7C183.9,167.9,184.3,167,184.3,165.8z"/>
		<path fill="#262F38" d="M230,184.8h-8.6l-2.3-5.6h-12.1l-2.3,5.6h-8.6l12.3-27.7h9.2L230,184.8z M217.2,174.3l-4.1-10.1l-4.1,10.1
			H217.2z"/>
		<path fill="#262F38" d="M265.9,184.8h-8.4v-16.1L250,178h-0.7l-7.6-9.3v16.1h-8.1V157h7.6l8.5,10.4l8.6-10.4h7.6V184.8z"/>
		<path fill="#262F38" d="M303.4,184.8h-8.6l-2.3-5.6h-12.1l-2.3,5.6h-8.6l12.3-27.7h9.2L303.4,184.8z M290.6,174.3l-4.1-10.1
			l-4.1,10.1H290.6z"/>
	</g>
	<g>
		<path fill="#262F38" d="M45.9,193.8h2v13.6h-2V193.8z"/>
		<path fill="#262F38" d="M52.4,198.5v1.1c0.8-0.9,1.7-1.3,2.7-1.3c0.6,0,1.1,0.1,1.6,0.4s0.8,0.7,1.1,1.2s0.4,1.3,0.4,2.4v5.1h-1.8
			v-5.1c0-0.9-0.1-1.6-0.4-2s-0.7-0.6-1.4-0.6c-0.8,0-1.6,0.4-2.1,1.3v6.4h-1.8v-9H52.4z"/>
		<path fill="#262F38" d="M59.4,199.9l3.3-3.3v1.9h2.8v1.6h-2.8v4.4c0,1,0.4,1.5,1.3,1.5c0.6,0,1.3-0.2,2-0.6v1.7
			c-0.7,0.4-1.4,0.6-2.2,0.6c-0.8,0-1.5-0.2-2-0.7c-0.2-0.1-0.3-0.3-0.4-0.5s-0.2-0.4-0.3-0.7s-0.1-0.8-0.1-1.7v-4h-1.6V199.9z"/>
		<path fill="#262F38" d="M74.9,203.2h-6.3c0,0.9,0.3,1.5,0.9,2.1s1.2,0.8,2.1,0.8c1.2,0,2.3-0.4,3.2-1.1v1.7
			c-0.5,0.4-1.1,0.6-1.6,0.8s-1.2,0.2-1.9,0.2c-1,0-1.8-0.2-2.4-0.6s-1.1-1-1.5-1.7s-0.6-1.5-0.6-2.4c0-1.4,0.4-2.5,1.2-3.3
			s1.8-1.3,3-1.3c1.2,0,2.1,0.4,2.9,1.2s1.1,1.9,1.1,3.3V203.2z M68.7,202.1h4.5c0-0.7-0.3-1.3-0.6-1.6s-0.9-0.6-1.5-0.6
			s-1.2,0.2-1.6,0.6S68.8,201.4,68.7,202.1z"/>
		<path fill="#262F38" d="M78.8,198.5v2.1l0.1-0.2c0.9-1.4,1.7-2.1,2.6-2.1c0.7,0,1.4,0.3,2.1,1l-0.9,1.6c-0.6-0.6-1.2-0.9-1.7-0.9
			c-0.6,0-1.1,0.3-1.5,0.8s-0.6,1.2-0.6,1.9v4.7H77v-9H78.8z"/>
		<path fill="#262F38" d="M90.4,202.1v3.8c0,0.3,0.1,0.5,0.3,0.5c0.2,0,0.6-0.2,1-0.5v1.1c-0.4,0.3-0.7,0.4-1,0.5s-0.5,0.1-0.8,0.1
			c-0.8,0-1.2-0.3-1.3-0.9c-0.8,0.6-1.6,0.9-2.4,0.9c-0.6,0-1.1-0.2-1.6-0.6s-0.6-0.9-0.6-1.6c0-0.6,0.2-1.1,0.6-1.5s1-0.8,1.7-1.1
			l2.3-0.8v-0.5c0-1.1-0.5-1.6-1.6-1.6c-1,0-1.9,0.5-2.8,1.5v-1.9c0.7-0.8,1.7-1.2,3-1.2c1,0,1.7,0.3,2.3,0.8
			c0.2,0.2,0.4,0.4,0.5,0.6s0.3,0.5,0.3,0.8S90.4,201.3,90.4,202.1z M88.7,205.7V203l-1.2,0.5c-0.6,0.2-1,0.5-1.3,0.7
			s-0.4,0.5-0.4,0.9c0,0.4,0.1,0.7,0.4,0.9s0.5,0.4,0.9,0.4C87.7,206.4,88.2,206.2,88.7,205.7z"/>
		<path fill="#262F38" d="M100,205.4v1.8c-0.9,0.3-1.8,0.5-2.6,0.5c-1.4,0-2.5-0.4-3.4-1.2s-1.3-1.9-1.3-3.3c0-1.4,0.4-2.6,1.2-3.4
			s1.9-1.3,3.2-1.3c0.5,0,0.9,0,1.2,0.1s0.8,0.3,1.4,0.5v1.9c-0.9-0.6-1.7-0.9-2.5-0.9c-0.8,0-1.5,0.3-2,0.8s-0.8,1.3-0.8,2.2
			c0,0.9,0.3,1.6,0.8,2.2s1.3,0.8,2.3,0.8C98.4,206,99.2,205.8,100,205.4z"/>
		<path fill="#262F38" d="M100.8,199.9l3.3-3.3v1.9h2.8v1.6h-2.8v4.4c0,1,0.4,1.5,1.3,1.5c0.6,0,1.3-0.2,2-0.6v1.7
			c-0.7,0.4-1.4,0.6-2.2,0.6c-0.8,0-1.5-0.2-2-0.7c-0.2-0.1-0.3-0.3-0.4-0.5s-0.2-0.4-0.3-0.7s-0.1-0.8-0.1-1.7v-4h-1.6V199.9z"/>
		<path fill="#262F38" d="M109.6,194.7c0.3,0,0.5,0.1,0.8,0.3s0.3,0.4,0.3,0.7c0,0.3-0.1,0.5-0.3,0.7s-0.5,0.3-0.8,0.3
			c-0.3,0-0.5-0.1-0.7-0.3s-0.3-0.5-0.3-0.7c0-0.3,0.1-0.5,0.3-0.7S109.4,194.7,109.6,194.7z M108.8,198.5h1.8v9h-1.8V198.5z"/>
		<path fill="#262F38" d="M118.6,198.5h1.9l-4,9.1H116l-4.1-9.1h1.9l2.4,5.5L118.6,198.5z"/>
		<path fill="#262F38" d="M129.1,203.2h-6.3c0,0.9,0.3,1.5,0.9,2.1s1.2,0.8,2.1,0.8c1.2,0,2.3-0.4,3.2-1.1v1.7
			c-0.5,0.4-1.1,0.6-1.6,0.8s-1.2,0.2-1.9,0.2c-1,0-1.8-0.2-2.4-0.6s-1.1-1-1.5-1.7s-0.6-1.5-0.6-2.4c0-1.4,0.4-2.5,1.2-3.3
			s1.8-1.3,3-1.3c1.2,0,2.1,0.4,2.9,1.2s1.1,1.9,1.1,3.3V203.2z M122.9,202.1h4.5c0-0.7-0.3-1.3-0.6-1.6s-0.9-0.6-1.5-0.6
			s-1.2,0.2-1.6,0.6S123,201.4,122.9,202.1z"/>
		<path fill="#262F38" d="M144.2,200.8h4.6v5.8c-1.7,0.7-3.3,1.1-5,1.1c-2.3,0-4.1-0.7-5.4-2s-2-2.9-2-4.9c0-2,0.7-3.7,2.1-5.1
			s3.2-2,5.3-2c0.8,0,1.5,0.1,2.2,0.2s1.6,0.5,2.6,0.9v2c-1.6-0.9-3.2-1.4-4.8-1.4c-1.5,0-2.7,0.5-3.8,1.5s-1.5,2.3-1.5,3.7
			c0,1.5,0.5,2.8,1.5,3.8s2.3,1.5,3.9,1.5c0.8,0,1.7-0.2,2.8-0.5l0.2-0.1v-2.8h-2.6V200.8z"/>
		<path fill="#262F38" d="M157.1,202.1v3.8c0,0.3,0.1,0.5,0.3,0.5c0.2,0,0.6-0.2,1-0.5v1.1c-0.4,0.3-0.7,0.4-1,0.5s-0.5,0.1-0.8,0.1
			c-0.8,0-1.2-0.3-1.3-0.9c-0.8,0.6-1.6,0.9-2.4,0.9c-0.6,0-1.1-0.2-1.6-0.6s-0.6-0.9-0.6-1.6c0-0.6,0.2-1.1,0.6-1.5s1-0.8,1.7-1.1
			l2.3-0.8v-0.5c0-1.1-0.5-1.6-1.6-1.6c-1,0-1.9,0.5-2.8,1.5v-1.9c0.7-0.8,1.7-1.2,3-1.2c1,0,1.7,0.3,2.3,0.8
			c0.2,0.2,0.4,0.4,0.5,0.6s0.3,0.5,0.3,0.8S157.1,201.3,157.1,202.1z M155.3,205.7V203l-1.2,0.5c-0.6,0.2-1,0.5-1.3,0.7
			s-0.4,0.5-0.4,0.9c0,0.4,0.1,0.7,0.4,0.9s0.5,0.4,0.9,0.4C154.3,206.4,154.8,206.2,155.3,205.7z"/>
		<path fill="#262F38" d="M167.3,201v6.5h-1.8v-5c0-1-0.1-1.7-0.4-2.1s-0.7-0.6-1.4-0.6c-0.4,0-0.7,0.1-1,0.3s-0.7,0.5-1.1,0.9v6.5
			h-1.8v-9h1.8v1.2c0.9-0.9,1.8-1.4,2.7-1.4c1.1,0,2,0.5,2.6,1.6c1-1.1,1.9-1.6,3-1.6c0.9,0,1.6,0.3,2.2,1s0.8,1.6,0.8,2.9v5.3h-1.8
			v-5.3c0-0.7-0.2-1.3-0.5-1.7s-0.7-0.6-1.3-0.6C168.6,199.9,168,200.2,167.3,201z"/>
		<path fill="#262F38" d="M183,203.2h-6.3c0,0.9,0.3,1.5,0.9,2.1s1.2,0.8,2.1,0.8c1.2,0,2.3-0.4,3.2-1.1v1.7
			c-0.5,0.4-1.1,0.6-1.6,0.8s-1.2,0.2-1.9,0.2c-1,0-1.8-0.2-2.4-0.6s-1.1-1-1.5-1.7s-0.6-1.5-0.6-2.4c0-1.4,0.4-2.5,1.2-3.3
			s1.8-1.3,3-1.3c1.2,0,2.1,0.4,2.9,1.2s1.1,1.9,1.1,3.3V203.2z M176.7,202.1h4.5c0-0.7-0.3-1.3-0.6-1.6s-0.9-0.6-1.5-0.6
			s-1.2,0.2-1.6,0.6S176.9,201.4,176.7,202.1z"/>
		<path fill="#262F38" d="M201.6,193.8h1.8v13.6h-2v-10.6l-4.2,5.3h-0.4l-4.2-5.3v10.6h-2v-13.6h1.8l4.5,5.6L201.6,193.8z"/>
		<path fill="#262F38" d="M211.8,207.5v-1.2c-0.4,0.4-0.8,0.7-1.3,1c-0.5,0.2-1,0.3-1.5,0.3c-0.6,0-1.1-0.1-1.6-0.4
			s-0.8-0.7-1.1-1.2s-0.4-1.3-0.4-2.4v-5.1h1.8v5.1c0,0.9,0.1,1.6,0.4,2c0.3,0.4,0.7,0.6,1.4,0.6c0.8,0,1.6-0.4,2.2-1.2v-6.4h1.8v9
			H211.8z"/>
		<path fill="#262F38" d="M215.7,206.8v-1.9c0.5,0.4,1,0.6,1.5,0.9s1,0.3,1.3,0.3c0.4,0,0.7-0.1,1-0.3s0.4-0.4,0.4-0.7
			c0-0.3-0.1-0.5-0.3-0.6s-0.5-0.4-1.1-0.7c-1.1-0.6-1.9-1.2-2.3-1.6s-0.5-0.9-0.5-1.5c0-0.7,0.3-1.3,0.8-1.7s1.2-0.7,2.1-0.7
			c0.9,0,1.8,0.2,2.7,0.7v1.8c-1.1-0.6-1.9-1-2.6-1c-0.3,0-0.6,0.1-0.8,0.2c-0.2,0.1-0.3,0.3-0.3,0.6c0,0.2,0.1,0.4,0.3,0.6
			c0.2,0.2,0.5,0.4,1,0.7l0.6,0.4c1.5,0.8,2.2,1.8,2.2,2.8c0,0.7-0.3,1.3-0.9,1.8c-0.6,0.5-1.3,0.7-2.2,0.7c-0.5,0-1-0.1-1.4-0.2
			S216.3,207.2,215.7,206.8z"/>
		<path fill="#262F38" d="M231.5,203.2h-6.3c0,0.9,0.3,1.5,0.9,2.1s1.2,0.8,2.1,0.8c1.2,0,2.3-0.4,3.2-1.1v1.7
			c-0.5,0.4-1.1,0.6-1.6,0.8s-1.2,0.2-1.9,0.2c-1,0-1.8-0.2-2.4-0.6s-1.1-1-1.5-1.7s-0.6-1.5-0.6-2.4c0-1.4,0.4-2.5,1.2-3.3
			s1.8-1.3,3-1.3c1.2,0,2.1,0.4,2.9,1.2s1.1,1.9,1.1,3.3V203.2z M225.2,202.1h4.5c0-0.7-0.3-1.3-0.6-1.6s-0.9-0.6-1.5-0.6
			s-1.2,0.2-1.6,0.6S225.3,201.4,225.2,202.1z"/>
		<path fill="#262F38" d="M239.1,207.5v-1.2c-0.4,0.4-0.8,0.7-1.3,1c-0.5,0.2-1,0.3-1.5,0.3c-0.6,0-1.1-0.1-1.6-0.4
			s-0.8-0.7-1.1-1.2s-0.4-1.3-0.4-2.4v-5.1h1.8v5.1c0,0.9,0.1,1.6,0.4,2c0.3,0.4,0.7,0.6,1.4,0.6c0.8,0,1.6-0.4,2.2-1.2v-6.4h1.8v9
			H239.1z"/>
		<path fill="#262F38" d="M250.8,201v6.5H249v-5c0-1-0.1-1.7-0.4-2.1s-0.7-0.6-1.4-0.6c-0.4,0-0.7,0.1-1,0.3s-0.7,0.5-1.1,0.9v6.5
			h-1.8v-9h1.8v1.2c0.9-0.9,1.8-1.4,2.7-1.4c1.1,0,2,0.5,2.6,1.6c1-1.1,1.9-1.6,3-1.6c0.9,0,1.6,0.3,2.2,1s0.8,1.6,0.8,2.9v5.3h-1.8
			v-5.3c0-0.7-0.2-1.3-0.5-1.7s-0.7-0.6-1.3-0.6C252.1,199.9,251.4,200.2,250.8,201z"/>
	</g>
	<path fill="#262F38" d="M92.4,43.5h117c1.2,0,2.3,1,2.3,2.3v4.5c0,1.3-1,2.3-2.3,2.3h-117c-1.3,0-2.3-1-2.3-2.3v-4.5
		C90.2,44.5,91.2,43.5,92.4,43.5"/>
	<path fill="#262F38" d="M92.4,114.6h117c1.2,0,2.3,1,2.3,2.3v4.5c0,1.3-1,2.3-2.3,2.3h-117c-1.3,0-2.3-1-2.3-2.3v-4.5
		C90.2,115.6,91.2,114.6,92.4,114.6"/>
	<path fill="#262F38" d="M85.3,126.7h131.3c1.3,0,2.3,1,2.3,2.3v4.5c0,1.3-1,2.3-2.3,2.3H85.3c-1.3,0-2.3-1-2.3-2.3V129
		C83.1,127.7,84.1,126.7,85.3,126.7"/>
	<path fill="#262F38" d="M151,0c-0.4,0-0.8,0.1-1.1,0.3L85,36.1c-1.1,0.6-1.5,2-0.9,3.1c0.4,0.7,1.2,1.2,2,1.2h129.7
		c1.3,0,2.3-1,2.3-2.3c0-0.8-0.4-1.6-1.2-2L152,0.3C151.7,0.1,151.3,0,151,0"/>
	<g>
		<g>
			<defs>
				<path id="SVGID_1_" d="M107.9,55.8c-0.8,0.2-1.5,0.5-2.2,1c-0.8,0.5-1.5,1.2-2.1,2.1c-0.3,0.6-0.6,1.2-0.8,1.8
					c-0.5,1.7-0.5,3.7,0,5.8c0.4,1.6,1.1,3.3,2.2,4.9c0.7,1.1,1.1,2.2,1.3,3.2c0.7,4.4-3.7,8.1-6.3,17.3c-1.1,3.9-2,8.8-2,15.2
					c0,0.1,0,0.3,0,0.4c0.1,0.6,0.6,1.2,1.4,1.7c0.8,0.5,1.9,1,3.3,1.3c1.1,0.3,2.4,0.5,3.7,0.7c1.8,0.2,3.7,0.3,5.5,0.2
					c2-0.1,3.8-0.3,5.4-0.7c1.7-0.4,3.1-0.9,4.1-1.5c0.8-0.5,1.3-1.1,1.4-1.7c0-0.1,0-0.3,0-0.4c0-6.4-0.8-11.3-2-15.2
					c-2.7-9.2-7-12.9-6.4-17.3c0.1-1,0.6-2,1.3-3.2c1-1.6,1.8-3.3,2.2-4.9c0.5-2.1,0.5-4.1,0-5.8c-0.2-0.7-0.5-1.3-0.8-1.8
					c-0.6-1-1.4-1.8-2.4-2.4c-1-0.6-2.2-0.9-3.6-1c-0.2,0-0.5,0-0.7,0C109.6,55.5,108.7,55.6,107.9,55.8"/>
			</defs>
			<use xlink:href="#SVGID_1_"  overflow="visible" fill="#FFCC00"/>
			<clipPath id="SVGID_2_">
				<use xlink:href="#SVGID_1_"  overflow="visible"/>
			</clipPath>
		</g>
		<g>
			<defs>
				<path id="SVGID_3_" d="M148.4,55.8c-0.8,0.2-1.5,0.5-2.2,1c-0.8,0.5-1.5,1.2-2.1,2.1c-0.3,0.6-0.6,1.2-0.8,1.8
					c-0.5,1.7-0.5,3.7,0,5.8c0.4,1.6,1.1,3.3,2.2,4.9c0.7,1.1,1.1,2.2,1.3,3.2c0.7,4.4-3.7,8.1-6.3,17.3c-1.1,3.9-2,8.8-2,15.2v0
					c0,0.1,0,0.3,0,0.4c0.1,0.6,0.6,1.2,1.4,1.7c0.8,0.5,1.9,1,3.3,1.3c1.1,0.3,2.4,0.5,3.7,0.7c1.8,0.2,3.7,0.3,5.5,0.2
					c2-0.1,3.8-0.3,5.4-0.7c1.7-0.4,3.1-0.9,4.1-1.5c0.8-0.5,1.3-1.1,1.4-1.7c0-0.1,0-0.3,0-0.4c0-6.4-0.8-11.3-2-15.2
					c-2.7-9.2-7-12.9-6.4-17.3c0.1-1,0.6-2,1.3-3.2c1-1.6,1.8-3.3,2.2-4.9c0.5-2.1,0.5-4.1,0-5.8c-0.2-0.7-0.5-1.3-0.8-1.8
					c-0.6-1-1.4-1.8-2.4-2.4c-1-0.6-2.2-0.9-3.6-1c-0.2,0-0.5,0-0.7,0C150.1,55.5,149.3,55.6,148.4,55.8"/>
			</defs>
			<use xlink:href="#SVGID_3_"  overflow="visible" fill="#FFCC00"/>
			<clipPath id="SVGID_4_">
				<use xlink:href="#SVGID_3_"  overflow="visible"/>
			</clipPath>
		</g>
		<g>
			<defs>
				<path id="SVGID_5_" d="M189,55.8c-0.8,0.2-1.5,0.5-2.2,1c-0.8,0.5-1.5,1.2-2.1,2.1c-0.3,0.6-0.6,1.2-0.8,1.8
					c-0.5,1.7-0.5,3.7,0,5.8c0.4,1.6,1.1,3.3,2.2,4.9c0.7,1.1,1.1,2.2,1.3,3.2c0.7,4.4-3.7,8.1-6.3,17.3c-1.1,3.9-2,8.8-2,15.2
					c0,0.1,0,0.3,0,0.4c0.1,0.6,0.6,1.2,1.4,1.7c0.8,0.5,1.9,1,3.3,1.3c1.1,0.3,2.4,0.5,3.7,0.7c1.8,0.2,3.7,0.3,5.5,0.2
					c2-0.1,3.8-0.3,5.4-0.7c1.7-0.4,3.1-0.9,4.1-1.5c0.8-0.5,1.3-1.1,1.4-1.7c0-0.1,0-0.3,0-0.4c0-6.4-0.8-11.3-2-15.2
					c-2.7-9.2-7-12.9-6.4-17.3c0.1-1,0.6-2,1.3-3.2c1-1.6,1.8-3.3,2.2-4.9c0.5-2.1,0.5-4.1,0-5.8c-0.2-0.7-0.5-1.3-0.8-1.8
					c-0.6-1-1.4-1.8-2.4-2.4c-1-0.6-2.2-0.9-3.6-1c-0.2,0-0.5,0-0.7,0C190.6,55.5,189.8,55.6,189,55.8"/>
			</defs>
			<use xlink:href="#SVGID_5_"  overflow="visible" fill="#FFCC00"/>
			<clipPath id="SVGID_6_">
				<use xlink:href="#SVGID_5_"  overflow="visible"/>
			</clipPath>
		</g>
	</g>
	<g>
		<path fill="#FFCC00" d="M151.4,22.2l10.2-5.9c-1.9-3.5-5.6-5.9-9.9-5.9c-6.2,0-11.3,5.1-11.3,11.3c0,6.2,5.1,11.3,11.3,11.3
			c4,0,7.5-2.1,9.5-5.2L151.4,22.2z"/>
	</g>
</g>
</svg>
