<?xml version="1.0" encoding="utf-8"?>
<!-- Generator: Adobe Illustrator 23.0.3, SVG Export Plug-In . SVG Version: 6.00 Build 0)  -->
<svg version="1.1" id="Layer_1" xmlns="http://www.w3.org/2000/svg" xmlns:xlink="http://www.w3.org/1999/xlink" x="0px" y="0px"
	 viewBox="0 0 357.12 170.49" style="enable-background:new 0 0 357.12 170.49;" xml:space="preserve">
<style type="text/css">
	.st0{fill:#FFFFFF;}
</style>
<path class="st0" d="M327.2,95.09c-2.11,0.87-3.04,0.34-2.91-3.15c0.03-0.75,3.42-18.26,9.91-21.44c1.84-0.9,3.7-0.86,5,0.58
	c2.45,2.72,1.8,6.91-0.03,10.73C336.49,87.36,330.1,93.9,327.2,95.09 M174.33,79.74c-0.4,3.5-1.88,5.48-2.43,6.22
	c-0.97,1.3-1.36,1.81-2.28,0.87c-0.75-0.76-3.57-6.48-3.97-10.26c-0.22-2.03,0.34-4.93,2.05-5.61c1.79-0.72,3.61-0.39,4.89,1.28
	C174.59,74.86,174.62,77.26,174.33,79.74 M132.21,78.18c-0.21,3.04-1,4.97-2.61,7.77c-1.01,1.75-2.05,0.44-2.65-0.42
	c-0.87-1.24-5.31-12.02-1.92-14.25c0.95-0.63,2.85-0.99,4.22-0.22c1.37,0.77,2.2,1.88,2.58,3.12
	C132.21,75.44,132.35,76.14,132.21,78.18 M357.1,99.06c-0.04-0.47-0.16-0.97-0.35-1.47c-1.19-3.09-6.61-0.21-8.46,0.57
	c-3.33,1.39-7.14,3.23-10.83,2.18c-1.02-0.29-0.72-1.16,0-1.6c0.36-0.22,9.83-5.57,12.62-17.42c4.46-18.96-9.23-24.23-14.62-24.87
	c-5.49-0.65-11.61,0.2-14.19,1.23c-7.31,2.93-9.22,9.45-9.72,13.36c-0.69,5.37-0.77,14.74-1.44,18.96
	c-0.44,2.78-2.51,6.99-6.59,6.59c-7.87-0.77-11.49-3.79-11.24-8.74c0.18-3.48,0.13-4.17,1.22-11.9c0.94-6.61,1.54-8.19,1.54-9.7
	c0-4.33-5.84-5.21-7.78-3.26c-1.51,1.51-1.88,4.58-2.26,9.77c-0.35,4.88-1.1,11.22-2.07,15.09c-1.51,6.03-2.11,6.47-3.48,8.19
	c-2.86,3.58-8.13,2.47-10.7,0.03c-1.52-1.44-1.72-2.71-1.43-6.94c0.29-4.22,0.99-11.58,1.96-19.25c0.85-6.71,0.26-7.72-1.8-9.6
	c-1.92-1.75-9.28-1.49-12.69-1.49c-5.27,0-4.96,2.5-5.3,11.05c-0.15,3.73-0.33,9.39-0.7,13.77c-0.61,7.13-14.24,12.5-20.5,12.17
	c-6.5-0.33-7.12-12.44-7.53-15.25c-0.41-2.82-0.58-27.11,0.13-27.93c0.5-0.58,4.41-1.02,8.86-1.89c9.87-1.93,11.28-3.19,11.3-6.28
	c0.01-1.51-0.09-3.63-1.77-4.2c-0.98-0.33-3.54-0.71-6.93-1.11c-9.77-1.15-11.15-0.79-11.2-2.03c-0.09-2.16,0.11-6.33-0.06-7.97
	c-0.43-4.03-5.16-5.39-10.5-5.04c-1.05,0.07-2.51,0.41-2.63,1.82s-0.11,2.5-0.28,4.88c-0.38,5.3-0.48,5.87-2.54,5.87
	c-1.84-0.01-17.09-1.36-20.02-0.42s-2.82,2.93-3.05,3.93s0.29,6.98,0.59,9.56c0.29,2.58,0.86,6.09,1.21,6.62s1.45,2.02,4.52,1.64
	c10.41-1.3,17.35-2.87,18.75-3.22c1.41-0.35,1.57-0.53,1.58,0.59c0.01,0.63,0.27,13.32,0.31,17.08c0.08,6.44,1.17,25.11-16.23,28
	c-7.24,1.2-14.02-0.9-17.1-4.29c-1.75-1.93-0.89-2.18-0.12-3.43c1.17-1.9,10.95-13.37,2.75-25.25c-4.83-7.01-16.41-7.57-20.62-5.75
	c-3.26,1.41-5.89,5.78-6.4,11.11c-1.57,16.45,7.86,26.61,8.22,27.24c0.44,0.75-1.21,3.17-6.97,4.02
	c-7.72,1.13-19.58-8.17-19.27-9.38c0.15-0.58,5.4-9.16,5.52-17.46c0.04-2.82-0.89-6.54-2.82-10.29c-1.94-3.75-8.03-9.55-14.63-8.28
	c-15.52,2.99-13.75,18.29-12.67,22.47c2.23,8.64,7.46,16.26,8.31,17.79c1.16,2.07-32.84,15.54-34.16,2.93
	c-1.31-12.5,17.28-39.45,15.82-49.91C97.34,42.53,91,40.56,85.48,40.46c-5.36-0.1-6.78,0.76-8.59,1.81
	c-1.05,0.61-2.55,1.81-4.63-0.18c-1.39-1.32-2.3-2.24-3.77-3.42c-0.75-0.6-1.94-1.35-3.93-1.64c-1.99-0.29-4.57,0-6.22,0.7
	c-1.64,0.7-2.93,1.94-4.28,3.11s-4.77,5.01-7.96,3.59c-1.38-0.61-6.07-2.95-9.45-4.42c-6.53-2.82-15.94,1.75-19.33,7.78
	c-5.04,8.96-15,44.19-16.51,48.83c-3.38,10.43,4.28,18.93,14.63,18.44c4.37-0.21,7.28-1.8,10.04-6.83
	c1.6-2.9,16.59-42.06,17.7-43.94c0.81-1.36,3.51-3.16,5.79-1.99c2.29,1.17,2.74,3.62,2.41,5.92c-0.55,3.73-11.12,27.62-11.53,30.32
	c-0.69,4.6,1.49,7.15,6.26,7.4c3.27,0.17,6.53-1.01,9.11-5.88c1.45-2.73,18.12-36.12,19.59-38.35c1.62-2.45,2.93-3.25,4.58-3.17
	c1.28,0.07,3.33,0.39,2.82,4.23c-0.5,3.77-13.91,28.27-15.32,34.27c-2.13,9.1,3.7,21.34,19.33,21.91
	c7.77,0.28,25.75-3.11,35.88-10.78c3.68-2.79,2.7-3.03,4.99-1c3.29,2.92,9.42,7.03,15.44,7.03c13.69,0,23.68-8.54,24.13-8.85
	c0.15-0.1,0.34-0.08,0.47,0.05c0.83,0.9,9.32,5.62,15.26,5.82c14.15,0.47,22.54-7.39,25.7-11.08c2.39-2.79,4.15-5.31,4.86-6.38
	c0.18-0.27,0.57-0.3,0.79-0.06c0.85,0.93,7.23,12.66,19.91,11.04c7.07-0.9,17.59-6.87,18.33-7.67c0.17-0.18,0.46-0.12,0.54,0.11
	c0.37,1.02,1.99,6.78,8.47,11.35c5.32,3.75,15.55,4.51,20.09,2.01c3.76-2.07,5.27-3.39,7.91-6.03c1.13-1.13,2.86-2.28,5.96-1.62
	c3.47,0.74,12.66,2.36,13.24,2.64c0.66,0.31,0.76,1.51,0.57,2.76c-0.31,1.97-1.06,8.88-1.82,15.34s-3.2,27.98,2.57,28.78
	c3.49,0.48,6.52-2.82,7.32-6.04c2.01-8.08,2.37-17.18,3.7-24.99c1.57-9.29,2.2-11.9,2.77-12.93c0.47-0.86,0.47-0.66,6.97-0.11
	c4.51,0.38,8.16,1.01,13.59,0.25C348.36,107.99,357.59,104.58,357.1,99.06"/>
</svg>
