<?xml version="1.0" encoding="utf-8"?>
<!-- Generator: Adobe Illustrator 25.4.1, SVG Export Plug-In . SVG Version: 6.00 Build 0)  -->
<svg version="1.1" id="Ebene_1" xmlns="http://www.w3.org/2000/svg" xmlns:xlink="http://www.w3.org/1999/xlink" x="0px" y="0px"
	 viewBox="0 0 200 200" style="enable-background:new 0 0 200 200;" xml:space="preserve">
<style type="text/css">
	.st0{fill:#FB342E;}
	.st1{fill:#C92A25;}
	.st2{fill:#4DA859;}
	.st3{fill:#367C40;}
	.st4{fill:#A5BCBC;}
	.st5{fill:url(#SVGID_1_);}
	.st6{fill:url(#SVGID_00000069373653876308724160000012759117718439972534_);}
	.st7{fill:#BA8106;}
	.st8{fill:#7D8C8C;}
	.st9{fill:#FFFAE5;}
	.st10{fill:#D5C486;}
	.st11{fill:#D8CEA9;}
</style>
<g>
	<path class="st0" d="M105.2,86.1c16.4-24-4.3-39.1-5.6-58.4c-1.1-16.4,11.8-22.5,21.3-23.1s23.1,3.7,24.2,20.1
		c1.3,19.3-17.3,37,2.2,58.6c19.5,21.6,29.1,55.7,31.5,82.6c2.3,25.7-41.2,28.7-45.1,28.9c-3.9,0.3-47.4,3.1-48.6-22.6
		C83.8,145.1,88.8,110.1,105.2,86.1z"/>
</g>
<path class="st1" d="M122,5.2c-9.8-1.2-23.4,6.1-22.3,22.5c1.3,19.3,22,34.4,5.6,58.4c-16.4,24-20.2,59-20.2,86
	c0,24.8,43.8,23.3,43.8,22.6c0-1.2-23.2-4-18.8-6.6c4.7-2.7,6.1-7.6,6.2-14.5c0.3-31.4-14-76.6-1.5-97.3c6.6-10.9-2.4-36.8-2.2-50.7
	C112.8,8.9,122,5.2,122,5.2z"/>
<g>
	<path class="st2" d="M89.5,85.6C71.9,62.4,91.9,46.3,92.3,27C92.7,10.6,79.5,5.1,70,4.9c-9.5-0.2-22.9,4.8-23.2,21.2
		c-0.4,19.4,19,36.2,0.5,58.7c-18.4,22.5-26.4,57-27.5,83.9c-1,25.8,42.5,26.7,46.4,26.7c3.9,0.1,47.5,0.9,47.5-24.9
		C113.6,143.6,107,108.8,89.5,85.6z"/>
	<path class="st3" d="M72.4,5.9c-0.3-1-1.7-0.9-2.5-1c-9.5-0.2-22.9,4.8-23.2,21.2c-0.4,19.4,19,36.2,0.5,58.7
		c-18.4,22.5-26.4,57-27.5,83.9c-1,25.8,42.5,26.7,46.4,26.7c-13.8-2.4-33.5-10.6-35.7-18.6c-2.2-8,0.5-26.8,5.2-46.8
		c4.1-17.3,5-17.6,9.9-28.8c5.6-12.7,11.4-21.6,13-31.3c3-18.3-2.1-20.1-1-41.7C58.6,6.7,72.4,5.9,72.4,5.9z"/>
</g>
<polygon class="st2" points="88.1,89.7 116.5,96.1 115.3,120.9 82.6,110.7 "/>
<g>
	<path class="st4" d="M82.6,71.6c-17.1-1.7-19.5-1.3-20.2,3.9c-0.1,0.4-0.5,2.3-0.9,4.9c-4.4-0.9-9.7,2.6-14,20.4
		c-4.7,19.6,6.7,35,6.7,35c-0.2,1.6-0.4,2.9-0.5,3.8c-0.3,2.1,0.7,7.5,18.3,10.2c17.6,2.7,21.2-2.8,21.4-4.9
		c0.7-6.7,6.6-61.6,6.8-64.1C100.7,75.7,98.2,73.2,82.6,71.6z M55.4,126.8c-2.5-2-3.3-16-2-23.1c1.2-7.1,3.6-15.8,5.5-15.8
		c1.3,0,1.5,0.9,1.5,1.4c0,0.2,0,0.3-0.1,0.5v0l0,0C58.8,100.8,56.8,115.9,55.4,126.8L55.4,126.8z"/>
	<linearGradient id="SVGID_1_" gradientUnits="userSpaceOnUse" x1="74.2745" y1="133.5628" x2="80.4453" y2="92.3685">
		<stop  offset="0" style="stop-color:#FFC71C"/>
		<stop  offset="1" style="stop-color:#F7FB81"/>
	</linearGradient>
	<path class="st5" d="M64.7,75.2c0,0-8.1,59.9-8.2,60.6c-0.3,1.9,0.7,5.3,16.2,7.6c15.5,2.3,18.6-1.1,18.8-2.9
		c0.6-5.9,6.6-60.9,6.6-60.9s-3.7,1.9-17.7,0S64.7,75.2,64.7,75.2z"/>
</g>
<g>
	<path class="st4" d="M96.3,83.2c0.3,2.5,8.7,57.1,9.7,63.7c0.3,2.1,4.2,7.4,21.6,3.9c17.4-3.5,18.2-8.9,17.8-11
		c-0.2-0.9-0.4-2.2-0.7-3.8c0,0,10.7-15.9,5.1-35.3c-5.1-17.6-10.6-20.9-15-19.8c-0.4-2.5-1-4.5-1.1-4.8c-1-5.1-4.8-5.2-20.4-3
		C98,75.4,95.6,78.1,96.3,83.2z M143.2,127.1c-2-10.9-4.6-25.9-6.6-36.7l0,0v0c0-0.2-0.1-0.3-0.1-0.5c0-0.6,0.1-1.4,1.4-1.5
		c1.9-0.1,4.7,8.5,6.2,15.5C145.7,111,145.7,125,143.2,127.1L143.2,127.1z"/>
	
		<linearGradient id="SVGID_00000098214311518938329920000007396663751562740870_" gradientUnits="userSpaceOnUse" x1="125.8301" y1="135.9235" x2="114.9693" y2="89.8314">
		<stop  offset="0" style="stop-color:#FFC71C"/>
		<stop  offset="1" style="stop-color:#F7FB81"/>
	</linearGradient>
	<path style="fill:url(#SVGID_00000098214311518938329920000007396663751562740870_);" d="M115.8,81.8c-13.9,2.6-17.4,0.6-17.4,0.6
		s8.5,54.3,9.4,60.1c0.3,1.8,3.5,5.1,18.9,2.1c15.4-3.1,16.2-6.5,15.8-8.4c-0.1-0.8-11-59.3-11-59.3S129.7,79.2,115.8,81.8z"/>
</g>
<path class="st2" d="M54.8,69.8c-5.5,5.7-26.7,8.6-26.7,23.5c0,16.4,12.7,20.1,19.4,20.1c5.8,0,11.1-1,12.2-10.1
	c0.6-5.2-1.8-11.2-3.9-8.7c-2.2,2.5-4.7,1.3-5.5-0.6c-0.7-1.9,0.2-3.9,0.2-3.9s0.7-1.8-1.1-2.1c-1.9-0.4-1.8,1.8-3.1,2.8
	C42.8,93.4,60.8,63.5,54.8,69.8z"/>
<path class="st3" d="M28.1,93.3c0,11.1,5.2,12.9,5.7,10c0.5-2.9-7-19.6,8.5-19.6c3.3,0,10.3-4,10.4-4.9c0.6-4.5,3.3-7.6,3.3-7.6
	s0.9-1.9,0.3-2.6s-1.6,1.3-1.6,1.3C49.3,75.5,28.1,78.3,28.1,93.3z"/>
<path class="st0" d="M50.3,79c5.9-3.7,8.5-9,4.8-12.1c-2.9-2.4-8.1-2.3-13,1.4s-7,9.2-4.8,12.1C39.6,83.4,45.1,82.3,50.3,79z"/>
<path class="st1" d="M53.2,65.8c-3-1.1-7.1-0.5-11.1,2.5c-4.9,3.7-7,9.2-4.8,12.1C37.4,80.5,36.2,72.7,53.2,65.8z"/>
<polygon class="st0" points="132,68.1 145.7,87.2 161.6,88.7 134.2,64.9 "/>
<path class="st0" d="M138.9,68.6c5.8,5.5,27.4,7.3,28.1,22.3c0.8,16.4-11.8,20.6-18.4,20.9c-5.8,0.3-9.8-0.5-12.2-8.3
	c-1.2-4.1,2.9-12.3,4.9-9.8c2.1,2.6,4.1,1.5,5.3-0.2c1.2-1.7,0-3.4,0-3.4s0.1-2.5,3.8,0"/>
<g>
	<path class="st2" d="M143.1,77.6c-6.1-3.4-8.9-8.6-5.3-11.9c2.7-2.5,7.9-2.7,13,0.8c5.1,3.5,7.4,8.8,5.3,11.9
		C154,81.4,148.5,80.6,143.1,77.6z"/>
</g>
<path class="st3" d="M140.9,68.8c-0.1-1.7,2.2-3.6,3.9-4.8c-2.8-0.4-5.3,0.2-7,1.7c-3.6,3.3-0.7,8.5,5.3,11.9c2.4,1.3,4.8,2.2,7,2.6
	C145.2,76.2,141,71,140.9,68.8z"/>
<path class="st1" d="M149,109.8c-5.3-0.2-11.8-3-8.8-14.3c0.7-2.5,1.4,4.6,6.8,0.1c3.4-2.9,1.9-4.3,1.9-4.3s3.2,0.6,4-1
	c0.6-1.2-1.9-3.1-3.6-4.7c-5.6-5.4-7.2-4.3-7.2-4.3c1.4,1.5,8.6,9.1,8.2,8.8c-3.7-2.5-4.3-0.2-4.3-0.2s1.2,2.2,0.3,3.6
	c-1.2,1.7-3.6,1.9-5,0.1c-2-2.7-6.5,5.6-5.5,9.8c1.8,7.9,6.9,8.6,12.7,8.6c12.9-0.1,18.7-11.9,16.6-12.9
	C164.9,99.1,155.5,110.1,149,109.8z"/>
<ellipse transform="matrix(0.1194 -0.9928 0.9928 0.1194 -2.8227 147.5915)" class="st7" cx="81.8" cy="75.4" rx="2.5" ry="16.6"/>
<ellipse transform="matrix(0.9837 -0.1799 0.1799 0.9837 -11.9363 21.8518)" class="st7" cx="114.5" cy="76.7" rx="16.6" ry="2.8"/>
<path class="st3" d="M46.1,113.4c7.7,0.4,13.1-1.6,14.2-10.4c0.6-5-1.7-9.2-3.8-9.4c-0.4-0.1-0.7-0.2-1,0.6
	c-0.4,1.4-2.8,1.5-4.3,0.2c-1.7-1.5-0.7-4.2-0.7-4.2s-3.9,4.2,0.7,6.4c3.5,1.7,5.4-1.4,6.3-0.1c1.2,1.7,1.7,4.6,1.6,6.2
	c-0.1,1.6-0.9,4.4-4.2,6.4c-4.8,3-15.9-2-17.5-1.7S39.7,113,46.1,113.4z"/>
<path class="st8" d="M97.3,82.7c11.7,2,27.9-1.3,32.9-4.8c5-3.5,2.5-5.5,0.5-4.1c-1.2,0.8-6.8,7.6-33.7,7.4
	C97,81.2,95.3,82.2,97.3,82.7z"/>
<path class="st8" d="M99.6,79.2c-11.5,2.7-27.9,0.4-33.1-2.8s-2.8-5.4-0.7-4.1c1.2,0.8,7.2,7.2,34.1,5.4
	C99.8,77.7,101.5,78.6,99.6,79.2z"/>
<g>
	<g>
		<path class="st9" d="M64.2,72.7c-1.1-2.7-3.7-4.9-0.7-11.2c2.4-5.1,8.5-1.9,10.6-1.3c1.1,0.3,5.6-1.2,9.5-0.7
			c3.4,0.4,5.7,2.8,6.6,3.3c1.9,1.1,5,0.4,6.9,0.8c1.9,0.4,4.5,3,5,4.9c0.6,2.3-0.8,8.5-4.3,9.6c-1.2,0.4-10.5,1.9-18.1,0.6
			C71.2,77.1,65.3,75.4,64.2,72.7z"/>
		<g>
			<path class="st10" d="M65.4,72.3c-0.4-1.1-1.1-2-1.5-3.1c-0.6-1.4-0.7-2.9-0.5-4.4c0.3-1.8,1-4.1,2.4-5.3
				c0.3-0.3,0.6-0.4,0.9-0.6c0.3-0.2,0.9-0.3-0.3,0c-1.2,0.3-0.6,0.1-0.3,0.1c0.8,0,1.5,0,2.2,0.1c1.3,0.2,2.5,0.7,3.7,1.1
				c1.1,0.4,2.1,0.3,3.3,0c4.1-0.7,8-1.1,11.6,1.3c1.2,0.8,2.1,1.7,3.6,2c1.9,0.3,3.9-0.2,5.7,0.4c1.7,0.6,3.2,2.1,4,3.6
				c0.7,1.2,0.8,2.5,0.6,3.9c-0.2,1.5-0.7,3-1.5,4.3c-0.3,0.6-0.8,1.2-1.3,1.6c-0.3,0.2-0.5,0.4-0.8,0.6c-0.3,0.2-1.1,0.4,0.5,0
				c1.5-0.4,0.9-0.2,0.6-0.1c-3.2,0.6-6.5,0.9-9.7,1c-5.1,0.1-10.2-0.8-15.2-2.1C71,76.1,66.6,75.1,65.4,72.3
				c-0.1-0.1-2.4,0.7-2.4,0.7c1.2,2.7,5.4,3.7,7.9,4.4c4.7,1.3,9.6,2.1,14.6,2.1c3.5,0,7.1-0.2,10.6-1c1.1-0.2,2.3-0.5,3.3-0.9
				c1.5-0.6,2.5-2.1,3.1-3.5c0.6-1.5,1.1-3.2,1-4.8c0-1.7-1-3.2-2.3-4.3c-1.6-1.5-3.1-1.9-5.2-1.9c-1.9,0-3.7,0-5.3-1.1
				c-1.6-1.2-3.2-2.2-5.1-2.7c-2.3-0.5-4.7-0.1-6.9,0.2c-1.3,0.2-2.6,0.6-4,0.2c-1.3-0.5-2.6-1-4.1-1.2c-1.7-0.3-3.2,0.1-4.9,0.6
				c-2,0.6-3.1,1.8-3.9,3.7c-0.8,2-1.3,4.1-0.7,6.2c0.4,1.5,1.3,2.7,1.8,4.1C63.1,73.1,65.4,72.2,65.4,72.3z"/>
		</g>
	</g>
</g>
<g>
	<path class="st11" d="M95.3,79.6c0,0-4.9-1.8-3.8-8.2c1.2-7.1,8.6-4.2,10.9-4.3c1.2,0,5.1-2.8,9-3.6c3.5-0.7,6.6,0.7,7.6,0.8
		c2.3,0.4,5-1.2,7-1.4c2-0.2,5.4,1.2,6.7,2.7c1.4,1.8,2,7.3-1,9.3c-1,0.7-9.1,4.2-17.1,5.4C105.7,81.6,95.3,79.6,95.3,79.6z"/>
</g>
<g>
	<path class="st9" d="M97,81.2c-1.7-1.3-5.4-3.3-4.6-9.7c0.6-5.2,7.7-4.3,10-4.4c1.2,0,5.1-2.8,9-3.6c3.5-0.7,6.6,0.7,7.6,0.8
		c2.3,0.4,5-1.2,7-1.4c2-0.2,5.4,1.2,6.7,2.7c1.4,1.8,2,7.8-1,9.8c-1,0.7-4.1,3.7-17.1,6.1C106,83.2,98.6,82.5,97,81.2z"/>
	<g>
		<path class="st10" d="M98.2,80.8c-2.2-1.8-4.1-3.4-4.6-6.4c-0.3-1.7-0.3-4,0.8-5.5c0.4-0.5,0.9-0.9,1.5-1.3c0.8-0.4,1.4-0.1-0.5,0
			c0.5,0,0.9-0.2,1.4-0.2c1.3-0.1,2.5-0.1,3.8-0.1c1.2,0,2.4-0.4,3.4-0.8c1.8-0.6,3.4-1.7,5.1-2.4c0.3-0.1,0.5-0.2,0.8-0.3
			c0.3-0.1,1.5-0.3,0.6-0.2c0.6-0.1,1.2-0.1,1.8-0.1c1.1,0,2.3,0.2,3.4,0.5c1.7,0.4,3,0.8,4.7,0.3c0.9-0.2,1.8-0.5,2.6-0.7
			c0.3-0.1,0.7-0.2,1-0.3c0.2-0.1,0.5-0.2,0.7-0.2c1.1-0.4-1,0,0,0.1c2,0.1,3.9,0.6,5.6,1.8c1.3,0.9,1.8,2.2,2.1,3.7
			c0.5,2.8,0,5.6-2.4,7.3c-1.4,1-2.8,1.8-4.3,2.4c-5,2.1-10.5,3.2-15.8,3.6c-2.5,0.2-5.1,0.2-7.6,0C101,81.9,99.3,81.7,98.2,80.8
			c-0.4-0.3-2,1-2.4,0.7c1.1,0.8,2.7,1,4.1,1.2c2.5,0.3,5,0.3,7.5,0.1c5.2-0.4,10.4-1.6,15.4-3c2.8-0.8,5.6-1.7,8.2-3.2
			c1.7-1,3.3-2.2,3.9-4.2c0.5-1.8,0.4-3.8-0.1-5.5c-0.6-1.9-2.1-2.9-3.9-3.6c-1.9-0.8-3.6-0.7-5.5-0.2c-0.9,0.2-1.8,0.5-2.7,0.8
			c-0.2,0.1-0.5,0.2-0.7,0.2c-1.1,0.4,1,0-0.2,0c-0.5,0-1,0.1-1.6,0c-2.2-0.4-4.2-1.2-6.6-0.9c-1.9,0.2-3.9,0.8-5.8,1.5
			c-1.2,0.4-2.3,1-3.5,1.5c-0.4,0.2-0.9,0.4-1.3,0.7c-0.2,0.1-0.5,0.2-0.7,0.4c-1,0.5,2.1-0.2,1.2-0.3c-1.3-0.2-2.8-0.1-4.1,0.1
			c-1.6,0.2-3.3,0.6-4.8,1.1c-1.8,0.6-3,1.9-3.3,3.8c-0.3,2.3,0,4.8,1.4,6.7c0.9,1.3,2.1,2.1,3.3,3.1C96.2,81.8,97.8,80.5,98.2,80.8
			z"/>
	</g>
</g>
<path class="st9" d="M103.7,80.3c-1.5,4.3-4.5,0.5-2.8,14.5c0.5,4-0.2,11.3-2,13.2c-2.6,2.8-7.8,0.8-5.2-4.7
	c2.8-5.7,3.9-18.2,1.6-21.4c-7.4-10.5-1.8-14.7,2.3-15C103.1,66.6,106.8,71.3,103.7,80.3z"/>
</svg>
