<?xml version="1.0" encoding="utf-8"?>
<!-- Generator: Adobe Illustrator 23.0.3, SVG Export Plug-In . SVG Version: 6.00 Build 0)  -->
<svg version="1.1" id="Ebene_1" xmlns="http://www.w3.org/2000/svg" xmlns:xlink="http://www.w3.org/1999/xlink" x="0px" y="0px"
	 viewBox="0 0 40 40" style="enable-background:new 0 0 40 40;" xml:space="preserve">
<style type="text/css">
	.st0{fill:#FFFFFF;}
	.st1{fill:#42253D;}
	.st2{fill:#D70B31;}
</style>
<g>
	<g>
		<path class="st1" d="M27.58,24.27c0.12,0.12,0.29,0.18,0.46,0.17c0.17-0.01,0.33-0.09,0.43-0.23c1.3-1.68,2.81-2.01,3.8-2.02l-4,4
			c-0.23,0.23-0.23,0.61,0,0.84c0.23,0.23,0.61,0.23,0.84,0l4.84-4.84c0.15-0.15,0.21-0.36,0.16-0.56c-0.05-0.2-0.2-0.36-0.39-0.43
			c-0.14-0.05-3.18-1.02-5.75,1.76c-0.28-0.29-0.62-0.66-1-1.08l-0.84,0.85C26.74,23.4,27.24,23.93,27.58,24.27z"/>
		<path class="st1" d="M34.55,31.63l-2.96-3.25c-0.22-0.24-0.6-0.26-0.84-0.04c-0.24,0.22-0.26,0.6-0.04,0.84l3.08,3.38
			c0.08,0.09,0.18,0.15,0.29,0.18c0.66,0.17,2.61,0.87,2.89,1.87c0.13,0.46-0.12,1.01-0.74,1.63c-0.62,0.62-1.17,0.87-1.63,0.74
			c-1.01-0.28-1.71-2.23-1.87-2.89c-0.03-0.1-0.08-0.2-0.16-0.28l-5.54-5.54c-0.23-0.23-0.61-0.23-0.84,0l-4,4
			c0-0.99,0.34-2.49,2.02-3.8c0.14-0.11,0.22-0.28,0.23-0.45c0-0.18-0.07-0.35-0.2-0.47c-0.46-0.41-0.98-0.86-1.53-1.34l-0.84,0.85
			c0.37,0.33,0.73,0.64,1.06,0.93c-2.74,2.57-1.78,5.6-1.73,5.73c0.07,0.2,0.23,0.34,0.43,0.39c0.2,0.05,0.41-0.01,0.56-0.16
			l4.42-4.42l5,5c0.2,0.71,0.99,3.12,2.67,3.58c0.19,0.05,0.38,0.08,0.57,0.08c0.73,0,1.47-0.38,2.22-1.13
			c0.95-0.95,1.3-1.88,1.05-2.79C37.66,32.63,35.28,31.83,34.55,31.63z"/>
		<path class="st1" d="M5.08,12.25c0.03,0.1,0.09,0.19,0.17,0.26c0,0,3.28,2.87,7.23,6.33l0.84-0.84c-3.53-3.09-6.54-5.73-7.17-6.28
			L3.34,3.34l8.05,2.68c0.61,0.7,3.37,3.88,6.47,7.42l0.85-0.85c-3.45-3.93-6.46-7.41-6.52-7.48c-0.07-0.08-0.16-0.14-0.26-0.18
			L2.58,1.83C2.37,1.76,2.13,1.82,1.97,1.98c-0.16,0.16-0.22,0.4-0.14,0.61L5.08,12.25z"/>
	</g>
	<g>
		<path class="st2" d="M0.81,40c-0.15,0-0.3-0.06-0.41-0.16c-0.18-0.17-0.24-0.43-0.14-0.66l2.95-7.38c0.03-0.07,0.07-0.14,0.13-0.2
			L30.9,4.05c0.11-0.11,0.26-0.17,0.42-0.17l0,0c0.16,0,0.31,0.06,0.42,0.17l2.46,2.46c0.23,0.23,0.23,0.61,0,0.84
			c-0.23,0.23-0.61,0.23-0.84,0l-2.04-2.04L4.27,32.36l-2.34,5.86l6.9-3.25L38.21,5.11c-0.57-0.44-1.45-1.24-2.88-2.68
			c-2.98-2.98-6.39,0.35-6.54,0.49l-7.39,6.9c-0.24,0.22-0.62,0.21-0.84-0.03c-0.22-0.24-0.21-0.62,0.03-0.84l7.38-6.89
			c0.03-0.03,1.07-1.06,2.59-1.66c2.09-0.82,4.03-0.41,5.62,1.18c2.07,2.07,2.82,2.63,3.05,2.78c0.07,0,0.14,0.02,0.2,0.04
			c0.22,0.09,0.37,0.31,0.37,0.55c0,0.18-0.09,0.35-0.22,0.47L9.6,35.89c-0.05,0.05-0.11,0.09-0.17,0.12l-8.36,3.94
			C0.98,39.98,0.9,40,0.81,40z"/>
	</g>
</g>
</svg>
