<?xml version="1.0" encoding="utf-8"?>
<!-- Generator: Adobe Illustrator 23.0.3, SVG Export Plug-In . SVG Version: 6.00 Build 0)  -->
<svg version="1.1" id="Ebene_1" xmlns="http://www.w3.org/2000/svg" xmlns:xlink="http://www.w3.org/1999/xlink" x="0px" y="0px"
	 viewBox="0 0 144.22 40" style="enable-background:new 0 0 144.22 40;" xml:space="preserve">
<style type="text/css">
	.st0{fill:#FFFFFF;}
	.st1{fill:#42253D;}
	.st2{fill:#D70B31;}
</style>
<g>
	<path class="st0" d="M8.87,12.9c0,0.24-0.02,0.63-0.06,0.91c-0.13,0.74-0.67,1.11-1.5,1.11H1.65c-0.78,0-1.35-0.5-1.35-1.43V0.13
		L0.46,0h0.87c0.95,0,1.3,0.45,1.3,1.47v11.51c0.67-0.06,1.35-0.09,1.93-0.09H8.87z"/>
	<path class="st0" d="M10.76,6.48c0-0.76-0.09-1.45-0.37-1.95c0.32-0.28,0.87-0.48,1.41-0.48c0.87,0,1.19,0.48,1.19,1.41v5.53
		c0,1.45,0.28,2.08,1.34,2.08c0.85,0,1.93-0.5,2.71-1.32V4.18c0.3-0.04,0.72-0.09,1.13-0.09c0.39,0,0.8,0.04,1.13,0.09v7.67
		c0,0.85,0.13,1.63,0.61,2.06c-0.13,0.41-0.48,0.91-0.84,1.13c-0.95-0.17-1.54-0.76-1.82-1.56c-0.95,0.91-2.23,1.6-3.62,1.6
		c-2.02,0-2.86-1.56-2.86-3.56V6.48z"/>
	<path class="st0" d="M25.66,7.98c0.5-0.67,1.19-1.45,1.71-2.1l-0.06-0.09c-0.61,0.09-1.97,0.13-2.86,0.13h-2.28
		C22.1,5.7,22.08,5.4,22.08,5.2c0-0.28,0.04-0.67,0.13-1.02h7.26c0.22,0.65,0.32,1.02,0.32,1.32c0,0.24-0.11,0.5-0.28,0.76
		l-3.53,4.79c-0.48,0.67-1.15,1.47-1.67,2.1l0.07,0.09c0.69-0.06,1.47-0.09,1.99-0.09h1.04c0.98,0,1.8-0.07,2.32-0.3
		c0.15,0.35,0.22,0.65,0.22,0.98c0,0.65-0.32,1.06-1.41,1.06h-6.46c-0.22-0.65-0.3-0.93-0.3-1.24c0-0.24,0.09-0.52,0.35-0.87
		L25.66,7.98z"/>
	<path class="st0" d="M33.64,10.25c0.09,1.8,0.67,3.1,2.52,3.1c1.08,0,2.1-0.35,3.01-0.82c0.37,0.35,0.63,0.98,0.71,1.43
		c-1.04,0.74-2.56,1.21-4.08,1.21c-3.42,0-4.47-2.69-4.47-5.61c0-3.23,1.52-5.66,4.53-5.66c2.8,0,4.29,2.06,4.29,4.64
		c0,0.69-0.04,1.11-0.15,1.71H33.64z M33.64,8.63h4.38V8.35c0-1.52-0.61-2.77-2.17-2.77C34.47,5.57,33.75,6.72,33.64,8.63z"/>
	<path class="st0" d="M43.14,4.03c1.02,0.22,1.67,0.91,1.97,1.93c0.5-1.11,1.39-1.93,2.84-1.93c0.39,0,0.74,0.04,1.15,0.13
		c0,0.61-0.15,1.5-0.54,2.12c-0.28-0.09-0.59-0.09-0.89-0.11c-1.17,0-1.87,0.76-2.32,1.65v7.07c-0.3,0.07-0.71,0.09-1.11,0.09
		c-0.41,0-0.82-0.02-1.13-0.09V7.46c0-1.15-0.43-1.89-0.8-2.23C42.43,4.81,42.78,4.27,43.14,4.03z"/>
	<path class="st0" d="M59.45,12.59c0,0.76,0.09,1.45,0.37,1.97c-0.33,0.26-0.87,0.48-1.41,0.48c-0.89,0-1.19-0.5-1.19-1.43V8.11
		c0-1.45-0.3-2.08-1.35-2.08c-0.87,0-1.97,0.5-2.73,1.34v7.52c-0.3,0.07-0.71,0.09-1.11,0.09c-0.41,0-0.8-0.02-1.13-0.09V4.23
		l0.13-0.13h0.85c0.85,0,1.19,0.5,1.24,1.34c0.93-0.85,2.14-1.45,3.45-1.45c2.04,0,2.88,1.56,2.88,3.56V12.59z"/>
	<path class="st0" d="M64.31,10.25c0.09,1.8,0.67,3.1,2.52,3.1c1.08,0,2.1-0.35,3.01-0.82c0.37,0.35,0.63,0.98,0.71,1.43
		c-1.04,0.74-2.56,1.21-4.08,1.21c-3.42,0-4.47-2.69-4.47-5.61c0-3.23,1.52-5.66,4.53-5.66c2.8,0,4.29,2.06,4.29,4.64
		c0,0.69-0.04,1.11-0.15,1.71H64.31z M64.31,8.63h4.38V8.35c0-1.52-0.61-2.77-2.17-2.77C65.14,5.57,64.42,6.72,64.31,8.63z"/>
	<path class="st0" d="M73.82,4.03c1.02,0.22,1.67,0.91,1.97,1.93c0.5-1.11,1.39-1.93,2.84-1.93c0.39,0,0.74,0.04,1.15,0.13
		c0,0.61-0.15,1.5-0.54,2.12c-0.28-0.09-0.59-0.09-0.89-0.11c-1.17,0-1.87,0.76-2.32,1.65v7.07c-0.3,0.07-0.71,0.09-1.11,0.09
		c-0.41,0-0.82-0.02-1.13-0.09V7.46c0-1.15-0.43-1.89-0.8-2.23C73.1,4.81,73.45,4.27,73.82,4.03z"/>
	<path class="st0" d="M7.98,28.94c0.82,0.3,1.34,1.06,1.67,1.99l0.65,1.84c0.22,0.65,0.61,1.24,1.08,1.6
		c-0.43,0.59-1.39,1.02-2.3,1.02c-1.26,0-1.67-0.67-2.12-1.99l-0.78-2.28c-0.26-0.74-0.67-1.34-1.84-1.34H3.45v5.42
		c-0.59,0.11-1.26,0.13-1.73,0.13c-0.41,0-1.15-0.02-1.71-0.13v-14.7l0.15-0.15c1.87-0.04,3.56-0.09,5.2-0.09
		c3.01,0,5.27,1.43,5.27,4.7C10.62,27.08,9.21,28.47,7.98,28.94z M3.45,27.12c0.67-0.02,1.32-0.04,1.6-0.04c1.65,0,2.04-1,2.04-2.1
		c0-1.13-0.39-2.08-2.04-2.08c-0.43,0-1,0-1.6-0.02V27.12z"/>
	<path class="st0" d="M20.45,34.26c-0.91,0.89-2.1,1.28-3.45,1.28c-1.36,0-2.56-0.39-3.45-1.28c-1.15-1.15-1.56-2.56-1.56-4.47
		c0-1.89,0.41-3.3,1.56-4.44c0.89-0.89,2.08-1.28,3.45-1.28c1.35,0,2.54,0.39,3.45,1.28c1.15,1.15,1.56,2.56,1.56,4.44
		C22.01,31.7,21.6,33.11,20.45,34.26z M17,33c1.32,0,1.52-1.41,1.52-3.21c0-1.78-0.19-3.19-1.52-3.19c-1.34,0-1.54,1.41-1.54,3.19
		C15.46,31.59,15.66,33,17,33z"/>
	<path class="st0" d="M28.78,32.74c0.17,0.48,0.26,1.06,0.26,1.6c0,0.26,0,0.54-0.07,0.76c-0.65,0.11-1.52,0.22-2.34,0.22
		c-1.95,0-2.69-0.95-2.69-3.01v-12.9l0.13-0.15h1.32c1.35,0,1.84,0.52,1.84,2.04v10.43c0,0.65,0.26,1.02,0.95,1.02H28.78z"/>
	<path class="st0" d="M35.35,32.74c0.17,0.48,0.26,1.06,0.26,1.6c0,0.26,0,0.54-0.07,0.76c-0.65,0.11-1.52,0.22-2.34,0.22
		c-1.95,0-2.69-0.95-2.69-3.01v-12.9l0.13-0.15h1.32c1.35,0,1.84,0.52,1.84,2.04v10.43c0,0.65,0.26,1.02,0.95,1.02H35.35z"/>
	<path class="st0" d="M39.89,30.89c0.11,1.17,0.52,2.06,1.95,2.06c0.98,0,1.93-0.3,2.82-0.65c0.5,0.5,0.8,1.32,0.89,1.99
		c-1.08,0.78-2.73,1.24-4.25,1.24c-3.81,0-4.83-2.8-4.83-5.66c0-3.27,1.41-5.81,4.86-5.81c2.86,0,4.51,1.97,4.51,4.6
		c0,0.95-0.07,1.52-0.28,2.23H39.89z M39.87,28.55h2.86v-0.24c0-1-0.41-1.84-1.43-1.84C40.34,26.47,39.95,27.14,39.87,28.55z"/>
	<path class="st0" d="M57.22,32.5c0,0.85,0.13,1.6,0.52,2.15c-0.5,0.43-1.26,0.74-2.1,0.74c-1.36,0-1.82-0.74-1.82-2.1v-4.62
		c0-0.98-0.2-1.43-0.93-1.43c-0.43,0-1.04,0.22-1.6,0.74v7.24c-0.48,0.09-1.11,0.13-1.69,0.13c-0.56,0-1.21-0.04-1.69-0.13V24.39
		l0.15-0.15h1.28c0.91,0,1.5,0.48,1.78,1.3c0.85-0.76,1.82-1.35,3.08-1.35c1.97,0,3.04,1.6,3.04,3.86V32.5z"/>
	<path class="st0" d="M59.83,32.17c0.95,0.5,2.15,0.91,3.01,0.91c0.82,0,1.26-0.32,1.26-0.76c0-0.41-0.28-0.74-1-0.98l-1.19-0.46
		c-1.52-0.56-2.71-1.5-2.71-3.25c0-2.19,1.65-3.58,4.2-3.58c1.3,0,3.04,0.43,3.99,0.91c0.04,0.8-0.39,1.95-0.93,2.36
		c-0.91-0.41-1.99-0.82-3.04-0.82c-0.58,0-0.89,0.3-0.89,0.69c0,0.37,0.24,0.61,0.82,0.82l1.34,0.48c1.65,0.59,2.88,1.65,2.88,3.49
		c0,2.17-1.73,3.53-4.38,3.53c-1.69,0-3.32-0.5-4.31-1.06C58.91,33.74,59.33,32.69,59.83,32.17z"/>
	<path class="st0" d="M74.68,35.43c-0.76,0-1.41-0.2-1.99-0.46v2.88c0,1.52-0.52,2.04-1.86,2.04h-1.3l-0.15-0.15V24.39l0.15-0.15
		h0.89c0.8,0,1.45,0.39,1.84,1.06c0.74-0.74,1.76-1.24,2.88-1.24c2.64,0,3.9,2.32,3.9,5.59C79.04,33.39,77.06,35.43,74.68,35.43z
		 M72.69,27.64v4.77c0.5,0.3,1,0.5,1.41,0.5c1.04,0,1.47-1.26,1.47-3.27c0-1.99-0.54-2.86-1.3-2.86
		C73.83,26.78,73.23,26.95,72.69,27.64z"/>
	<path class="st0" d="M84.94,35.21c-0.48,0.09-1.13,0.13-1.71,0.13c-0.56,0-1.19-0.04-1.69-0.13v-7.18c0-0.71-0.26-1.26-1.02-1.26
		h-0.32c-0.11-0.37-0.13-0.74-0.13-1.15c0-0.37,0.02-0.82,0.13-1.21c0.67-0.07,1.43-0.11,1.91-0.11h0.48c1.43,0,2.36,1,2.36,2.58
		V35.21z M81.15,20.03c0.37-0.19,1.02-0.35,1.6-0.35c0.59,0,1.28,0.15,1.6,0.35c0.17,0.39,0.26,0.87,0.26,1.26
		c0,0.39-0.09,0.87-0.26,1.26c-0.32,0.17-1.02,0.32-1.6,0.32c-0.58,0-1.28-0.13-1.6-0.32c-0.17-0.39-0.26-0.87-0.26-1.26
		C80.89,20.88,80.97,20.42,81.15,20.03z"/>
	<path class="st0" d="M90.28,30.89c0.11,1.17,0.52,2.06,1.95,2.06c0.98,0,1.93-0.3,2.82-0.65c0.5,0.5,0.8,1.32,0.89,1.99
		c-1.08,0.78-2.73,1.24-4.25,1.24c-3.81,0-4.83-2.8-4.83-5.66c0-3.27,1.41-5.81,4.86-5.81c2.86,0,4.51,1.97,4.51,4.6
		c0,0.95-0.07,1.52-0.28,2.23H90.28z M90.26,28.55h2.86v-0.24c0-1-0.41-1.84-1.43-1.84C90.73,26.47,90.34,27.14,90.26,28.55z"/>
	<path class="st0" d="M103.1,32.74c0.17,0.48,0.26,1.06,0.26,1.6c0,0.26,0,0.54-0.07,0.76c-0.65,0.11-1.52,0.22-2.34,0.22
		c-1.95,0-2.69-0.95-2.69-3.01v-12.9l0.13-0.15h1.32c1.35,0,1.84,0.52,1.84,2.04v10.43c0,0.65,0.26,1.02,0.95,1.02H103.1z"/>
	<path class="st0" d="M111.25,25.54c0,0.43-0.04,0.85-0.13,1.24l-2.58-0.04v4.99c0,0.65,0.28,1.02,0.95,1.02h1.21
		c0.17,0.48,0.28,1.08,0.28,1.6c0,0.26-0.02,0.54-0.09,0.76c-0.8,0.11-1.95,0.22-2.8,0.22c-1.97,0-2.88-0.95-2.88-3.01v-5.55
		l-1.69,0.02c-0.11-0.39-0.15-0.8-0.15-1.24c0-0.37,0.04-0.76,0.15-1.17l1.69,0.04v-1.26c0-1.5,0.52-2.04,1.84-2.04h1.32l0.15,0.15
		v3.14l2.58-0.04C111.21,24.78,111.25,25.17,111.25,25.54z"/>
	<path class="st0" d="M121.08,35.38c-1.11-0.02-1.87-0.52-2.34-1.15c-0.76,0.72-1.76,1.3-3.17,1.3c-2.23,0-3.3-1.73-3.3-3.3
		c0-2.6,2.06-3.75,4.29-3.75c0.39,0,0.98,0,1.54,0.04v-0.41c0-0.91-0.43-1.37-1.41-1.37c-0.93,0-2.06,0.35-3.19,0.69
		c-0.48-0.56-0.74-1.52-0.82-2.36c1.45-0.59,3.56-0.95,4.96-0.95c1.89,0,3.86,0.95,3.86,3.71v4.4c0,0.63,0.17,1.11,0.61,1.41
		C121.98,34.23,121.51,35.06,121.08,35.38z M118.1,32.41v-1.74c-0.43-0.02-0.87-0.04-1.17-0.04c-0.98,0-1.37,0.56-1.37,1.39
		c0,0.58,0.39,1.02,1,1.02C117.07,33.04,117.61,32.82,118.1,32.41z"/>
	<path class="st0" d="M127.61,24.07c1.28,0,2.21,0.46,2.86,1.02c0.48-0.52,1.15-0.85,2.04-0.87c0.43,0.33,0.95,1.13,1.04,1.74
		c-0.37,0.26-0.61,0.87-0.61,1.56v5.72c0,3.04-0.43,4.31-1.11,5.18c-0.87,1.08-2.34,1.58-4.08,1.58c-1.36,0-2.95-0.28-4.08-0.71
		c0-0.8,0.35-1.89,0.82-2.45c0.93,0.41,1.97,0.65,2.95,0.65c1.58,0,2.19-0.87,2.19-2.19v-0.71c-0.72,0.52-1.58,0.85-2.47,0.85
		c-2.65,0-3.9-2.32-3.9-5.62C123.27,26.1,125.24,24.07,127.61,24.07z M129.64,27.32c-0.5-0.48-1.02-0.74-1.43-0.74
		c-1.06,0-1.47,1.24-1.47,3.25s0.54,2.86,1.28,2.86c0.56,0,1.13-0.24,1.63-0.74v-4.49V27.32z"/>
	<path class="st0" d="M138.28,30.89c0.11,1.17,0.52,2.06,1.95,2.06c0.98,0,1.93-0.3,2.82-0.65c0.5,0.5,0.8,1.32,0.89,1.99
		c-1.08,0.78-2.73,1.24-4.25,1.24c-3.81,0-4.83-2.8-4.83-5.66c0-3.27,1.41-5.81,4.86-5.81c2.86,0,4.51,1.97,4.51,4.6
		c0,0.95-0.07,1.52-0.28,2.23H138.28z M138.26,28.55h2.86v-0.24c0-1-0.41-1.84-1.43-1.84C138.74,26.47,138.34,27.14,138.26,28.55z"
		/>
</g>
</svg>
