<svg id="Layer_1" data-name="Layer 1" xmlns="http://www.w3.org/2000/svg" xmlns:xlink="http://www.w3.org/1999/xlink" viewBox="0 0 63.96 70.61"><defs><style>.cls-1{fill:url(#New_Gradient_Swatch);}.cls-2{fill:url(#New_Gradient_Swatch_copy);}.cls-3{fill:url(#New_Gradient_Swatch_copy_2);}.cls-4{fill:url(#New_Gradient_Swatch_copy-2);}.cls-5{fill:url(#New_Gradient_Swatch-2);}.cls-6{fill:url(#New_Gradient_Swatch_copy_2-2);}.cls-7{fill:url(#New_Gradient_Swatch-3);}.cls-8{fill:url(#New_Gradient_Swatch_copy_2-3);}.cls-9{fill:url(#New_Gradient_Swatch_copy-3);}</style><linearGradient id="New_Gradient_Swatch" x1="19.09" y1="26.85" x2="38.36" y2="26.85" gradientUnits="userSpaceOnUse"><stop offset="0" stop-color="#f73"/><stop offset="0.8" stop-color="#fb0"/></linearGradient><linearGradient id="New_Gradient_Swatch_copy" x1="22.63" y1="15.59" x2="35.39" y2="15.59" gradientUnits="userSpaceOnUse"><stop offset="0" stop-color="#60c"/><stop offset="0.8" stop-color="#b31980"/></linearGradient><linearGradient id="New_Gradient_Swatch_copy_2" x1="22.49" y1="32.49" x2="45.01" y2="32.49" gradientUnits="userSpaceOnUse"><stop offset="0" stop-color="#94d926"/><stop offset="0.8" stop-color="#004080"/></linearGradient><linearGradient id="New_Gradient_Swatch_copy-2" x1="15.7" y1="40.94" x2="63.96" y2="40.94" xlink:href="#New_Gradient_Swatch_copy"/><linearGradient id="New_Gradient_Swatch-2" x1="28.57" y1="38.12" x2="54.34" y2="38.12" xlink:href="#New_Gradient_Swatch"/><linearGradient id="New_Gradient_Swatch_copy_2-2" x1="44.97" y1="12.77" x2="54.48" y2="12.77" xlink:href="#New_Gradient_Swatch_copy_2"/><linearGradient id="New_Gradient_Swatch-3" x1="6.22" y1="60.66" x2="12.48" y2="60.66" xlink:href="#New_Gradient_Swatch"/><linearGradient id="New_Gradient_Swatch_copy_2-3" x1="47.81" y1="43.76" x2="54.06" y2="43.76" xlink:href="#New_Gradient_Swatch_copy_2"/><linearGradient id="New_Gradient_Swatch_copy-3" x1="0" y1="46.57" x2="9.51" y2="46.57" xlink:href="#New_Gradient_Swatch_copy"/></defs><path class="cls-1" d="M20.59,53.71a1.59,1.59,0,0,1-.75-.2,1.5,1.5,0,0,1-.54-2L35.14,24,26.21,7.86a1.53,1.53,0,0,1,0-1.48L29.48.75a1.5,1.5,0,0,1,2.6,1.5l-2.83,4.9,8.92,16.16a1.5,1.5,0,0,1,0,1.48L21.89,53A1.49,1.49,0,0,1,20.59,53.71Z"/><path class="cls-2" d="M24.13,25.54a1.56,1.56,0,0,1-.75-.2,1.51,1.51,0,0,1-.55-2.05L32.59,6.38a1.5,1.5,0,0,1,2.6,1.5L25.43,24.79A1.5,1.5,0,0,1,24.13,25.54Z"/><path class="cls-3" d="M33.18,65a1.5,1.5,0,0,1-1.29-2.25l2.82-4.91L22.68,36a1.5,1.5,0,0,1,0-1.48L42.21.75a1.5,1.5,0,1,1,2.6,1.5L25.71,35.32l12,21.8a1.51,1.51,0,0,1,0,1.47l-3.26,5.64A1.49,1.49,0,0,1,33.18,65Z"/><path class="cls-4" d="M17.2,70.61a1.59,1.59,0,0,1-.75-.2,1.5,1.5,0,0,1-.55-2L35.46,34.49a1.49,1.49,0,0,1,1.29-.75h0l11.83.06L61.16,12a1.5,1.5,0,0,1,2.6,1.5l-13,22.53a1.5,1.5,0,0,1-1.3.75h0l-11.82,0L18.5,69.86A1.5,1.5,0,0,1,17.2,70.61Z"/><path class="cls-5" d="M30.07,59.34a1.48,1.48,0,0,1-.75-.2,1.5,1.5,0,0,1-.55-2L51.54,17.65a1.5,1.5,0,1,1,2.6,1.5L31.37,58.59A1.5,1.5,0,0,1,30.07,59.34Z"/><path class="cls-6" d="M46.47,19.9a1.48,1.48,0,0,1-.75-.2,1.5,1.5,0,0,1-.55-2.05L51.68,6.38a1.5,1.5,0,0,1,2-.54,1.48,1.48,0,0,1,.55,2L47.77,19.15A1.5,1.5,0,0,1,46.47,19.9Z"/><path class="cls-7" d="M7.72,65a1.5,1.5,0,0,1-1.29-2.25l3.25-5.64a1.5,1.5,0,0,1,2.6,1.5L9,64.23A1.49,1.49,0,0,1,7.72,65Z"/><path class="cls-8" d="M49.31,48.07a1.43,1.43,0,0,1-.75-.2,1.49,1.49,0,0,1-.55-2l3.25-5.63a1.5,1.5,0,1,1,2.6,1.5l-3.25,5.63A1.51,1.51,0,0,1,49.31,48.07Z"/><path class="cls-9" d="M1.5,53.71a1.56,1.56,0,0,1-.75-.2,1.51,1.51,0,0,1-.55-2L6.71,40.19a1.5,1.5,0,0,1,2.6,1.5L2.8,53A1.5,1.5,0,0,1,1.5,53.71Z"/></svg>