<svg id="Layer_1" data-name="Layer 1" xmlns="http://www.w3.org/2000/svg" xmlns:xlink="http://www.w3.org/1999/xlink" viewBox="0 0 110.96 64.97"><defs><style>.cls-1{fill:url(#New_Gradient_Swatch);}.cls-2{fill:url(#New_Gradient_Swatch_copy_2);}.cls-3{fill:url(#New_Gradient_Swatch_copy);}.cls-4{fill:url(#New_Gradient_Swatch_copy_2-2);}.cls-5{fill:url(#New_Gradient_Swatch_copy_2-3);}.cls-6{fill:url(#New_Gradient_Swatch_copy-2);}.cls-7{fill:url(#New_Gradient_Swatch-2);}.cls-8{fill:url(#New_Gradient_Swatch-3);}.cls-9{fill:url(#New_Gradient_Swatch_copy-3);}.cls-10{fill:url(#New_Gradient_Swatch_copy_2-4);}.cls-11{fill:url(#New_Gradient_Swatch_copy-4);}.cls-12{fill:url(#New_Gradient_Swatch-4);}.cls-13{fill:url(#New_Gradient_Swatch-5);}</style><linearGradient id="New_Gradient_Swatch" x1="85.33" y1="52.21" x2="94.98" y2="52.21" gradientUnits="userSpaceOnUse"><stop offset="0" stop-color="#f73"/><stop offset="0.8" stop-color="#fb0"/></linearGradient><linearGradient id="New_Gradient_Swatch_copy_2" x1="104.71" y1="38.12" x2="110.96" y2="38.12" gradientUnits="userSpaceOnUse"><stop offset="0" stop-color="#94d926"/><stop offset="0.8" stop-color="#004080"/></linearGradient><linearGradient id="New_Gradient_Swatch_copy" x1="76.14" y1="40.94" x2="88.41" y2="40.94" gradientUnits="userSpaceOnUse"><stop offset="0" stop-color="#60c"/><stop offset="0.8" stop-color="#b31980"/></linearGradient><linearGradient id="New_Gradient_Swatch_copy_2-2" x1="66.38" y1="43.75" x2="85.5" y2="43.75" xlink:href="#New_Gradient_Swatch_copy_2"/><linearGradient id="New_Gradient_Swatch_copy_2-3" x1="47.81" y1="40.94" x2="60.56" y2="40.94" xlink:href="#New_Gradient_Swatch_copy_2"/><linearGradient id="New_Gradient_Swatch_copy-2" x1="38.19" y1="38.12" x2="63.68" y2="38.12" xlink:href="#New_Gradient_Swatch_copy"/><linearGradient id="New_Gradient_Swatch-2" x1="34.79" y1="57.84" x2="44.3" y2="57.84" xlink:href="#New_Gradient_Swatch"/><linearGradient id="New_Gradient_Swatch-3" x1="19.52" y1="26.85" x2="38.08" y2="26.85" xlink:href="#New_Gradient_Swatch"/><linearGradient id="New_Gradient_Swatch_copy-3" x1="15.7" y1="46.57" x2="38.22" y2="46.57" xlink:href="#New_Gradient_Swatch_copy"/><linearGradient id="New_Gradient_Swatch_copy_2-4" x1="19.38" y1="26.85" x2="28.88" y2="26.85" xlink:href="#New_Gradient_Swatch_copy_2"/><linearGradient id="New_Gradient_Swatch_copy-4" x1="0" y1="26.85" x2="38.5" y2="26.85" xlink:href="#New_Gradient_Swatch_copy"/><linearGradient id="New_Gradient_Swatch-4" x1="6.22" y1="55.02" x2="12.48" y2="55.02" xlink:href="#New_Gradient_Swatch"/><linearGradient id="New_Gradient_Swatch-5" x1="66.66" y1="26.85" x2="72.91" y2="26.85" xlink:href="#New_Gradient_Swatch"/></defs><path class="cls-1" d="M86.83,65a1.48,1.48,0,0,1-.75-.2,1.5,1.5,0,0,1-.55-2l6.08-10.53-2.7-4.89a1.53,1.53,0,0,1,0-1.48l3.26-5.63a1.49,1.49,0,0,1,2-.55,1.51,1.51,0,0,1,.55,2L92,46.59l2.7,4.89a1.53,1.53,0,0,1,0,1.48L88.13,64.22A1.48,1.48,0,0,1,86.83,65Z"/><path class="cls-2" d="M106.21,42.44a1.53,1.53,0,0,1-.75-.2,1.49,1.49,0,0,1-.55-2.05l3.25-5.64a1.5,1.5,0,0,1,2.6,1.5l-3.25,5.64A1.51,1.51,0,0,1,106.21,42.44Z"/><path class="cls-3" d="M83.72,59.34a1.46,1.46,0,0,1-.75-.2,1.5,1.5,0,0,1-.55-2l2.77-4.8L76.32,36a1.51,1.51,0,0,1,0-1.47l6.5-11.26a1.5,1.5,0,1,1,2.6,1.5L79.36,35.33,88.23,51.6a1.49,1.49,0,0,1,0,1.46L85,58.59A1.5,1.5,0,0,1,83.72,59.34Z"/><path class="cls-4" d="M67.88,53.71a1.53,1.53,0,0,1-.75-.2,1.5,1.5,0,0,1-.55-2l3.25-5.64a1.51,1.51,0,0,1,1.3-.75h5.5L82.7,34.55a1.5,1.5,0,0,1,2.6,1.5L78.79,47.32a1.47,1.47,0,0,1-1.29.75H72L69.18,53A1.51,1.51,0,0,1,67.88,53.71Z"/><path class="cls-5" d="M51.89,59.34a1.48,1.48,0,0,1-.75-.2,1.5,1.5,0,0,1-.54-2l2.84-4.92L48,41.63a1.5,1.5,0,0,1,0-1.44l9.75-16.9a1.5,1.5,0,1,1,2.6,1.5L51,41l5.46,10.54a1.53,1.53,0,0,1,0,1.44l-3.26,5.63A1.49,1.49,0,0,1,51.89,59.34Z"/><path class="cls-6" d="M39.69,48.07a1.43,1.43,0,0,1-.75-.2,1.5,1.5,0,0,1-.55-2L44.9,34.55a1.5,1.5,0,0,1,1.29-.75l11.9,0,2.79-4.83a1.5,1.5,0,1,1,2.59,1.5L60.26,36a1.48,1.48,0,0,1-1.29.75l-11.91.06L41,47.32A1.5,1.5,0,0,1,39.69,48.07Z"/><path class="cls-7" d="M36.29,65a1.42,1.42,0,0,1-.74-.2,1.49,1.49,0,0,1-.55-2l6.5-11.26A1.5,1.5,0,1,1,44.1,53L37.59,64.22A1.47,1.47,0,0,1,36.29,65Z"/><path class="cls-8" d="M30.07,53.71a1.56,1.56,0,0,1-.75-.2,1.51,1.51,0,0,1-.55-2l6.08-10.54L19.7,13.49a1.51,1.51,0,0,1,0-1.47L26.22.75a1.5,1.5,0,0,1,2.6,1.5L22.74,12.78,37.89,40.21a1.53,1.53,0,0,1,0,1.48L31.37,53A1.5,1.5,0,0,1,30.07,53.71Z"/><path class="cls-9" d="M17.2,65a1.48,1.48,0,0,1-.75-.2,1.5,1.5,0,0,1-.55-2l19.52-33.8a1.5,1.5,0,1,1,2.6,1.5L18.5,64.22A1.48,1.48,0,0,1,17.2,65Z"/><path class="cls-10" d="M23.85,42.44a1.47,1.47,0,0,1-.73-.19,1.51,1.51,0,0,1-.59-2l2.72-4.91L19.56,24.75a1.49,1.49,0,0,1,0-1.46L26.08,12a1.5,1.5,0,1,1,2.6,1.5L22.59,24.06l5.69,10.53a1.5,1.5,0,0,1,0,1.44l-3.11,5.63A1.49,1.49,0,0,1,23.85,42.44Z"/><path class="cls-11" d="M1.5,48.07a1.46,1.46,0,0,1-.75-.2,1.5,1.5,0,0,1-.55-2L6.71,34.55A1.49,1.49,0,0,1,8,33.8H19.87L35.7,6.38a1.5,1.5,0,0,1,2.6,1.5L22,36.05a1.48,1.48,0,0,1-1.3.75H8.87L2.8,47.32A1.5,1.5,0,0,1,1.5,48.07Z"/><path class="cls-12" d="M7.72,59.34a1.48,1.48,0,0,1-.75-.2,1.51,1.51,0,0,1-.55-2l3.26-5.63a1.49,1.49,0,0,1,2.05-.55A1.51,1.51,0,0,1,12.28,53L9,58.59A1.49,1.49,0,0,1,7.72,59.34Z"/><path class="cls-13" d="M68.16,31.17a1.46,1.46,0,0,1-.75-.2,1.5,1.5,0,0,1-.55-2l3.25-5.63a1.5,1.5,0,0,1,2.6,1.5l-3.25,5.63A1.5,1.5,0,0,1,68.16,31.17Z"/></svg>