<?xml version="1.0" encoding="utf-8"?>
<!-- Generator: Adobe Illustrator 23.0.3, SVG Export Plug-In . SVG Version: 6.00 Build 0)  -->
<svg version="1.1" id="Ebene_1" xmlns="http://www.w3.org/2000/svg" xmlns:xlink="http://www.w3.org/1999/xlink" x="0px" y="0px"
	 viewBox="0 0 269.55 40" style="enable-background:new 0 0 269.55 40;" xml:space="preserve">
<style type="text/css">
	.st0{fill:#FFFFFF;}
	.st1{fill:#42253D;}
	.st2{fill:#D70B31;}
</style>
<g>
	<path class="st0" d="M16.99,5.25c-5.74,0.11-8.91,2.24-9.94,6.06c-0.44,1.75-0.55,2.95-0.55,5.3v17.1
		c2.35-0.38,3.77-1.75,4.37-4.15c0.33-1.48,0.49-3.77,0.49-6.34v-5.14h6.51v5.14c0,3.66-0.22,6.99-1.2,9.24
		c-1.86,4.43-6.29,7.49-16.67,7.49V15.96c0-1.58,0.16-3.39,0.55-5.08C1.91,4.21,6.61,0.44,14.97,0L16.99,5.25z"/>
	<path class="st0" d="M27.88,0.6v38.75H21.1V0.6H27.88z"/>
	<path class="st0" d="M32.26,0.6h6.78v33.17h6.78v5.57H32.26V0.6z"/>
	<path class="st0" d="M60.24,2.51C64.56,5.25,66.2,9.4,66.2,18.8c0,14.1-2.19,21.37-18.15,21.1V0C53.47,0,57.46,0.77,60.24,2.51z
		 M54.56,33.72c3.82-0.71,5.08-3.72,5.08-14.43c0-9.73-1.37-12.57-5.08-13.12V33.72z"/>
	<path class="st0" d="M84.85,4.97c-4.92,0.98-7.32,3.17-8.2,6.61c-0.27,0.98-0.33,2.24-0.33,4.86v1.2c1.75-1.31,3.72-2.35,5.96-3.11
		l2.46,4.97c-3.34,1.64-5.9,3.33-7.27,5.96c-0.77,1.42-1.09,3.44-1.15,6.18l-0.05,1.97c2.9-0.6,5.19-1.86,7.32-5.63l4.75,3.33
		c-4.65,6.67-9.78,8.63-18.52,8.63v-9.29c0-4.32,1.42-7.87,3.88-10.6h-3.88v-4.37c0-9.62,4.75-14.26,12.57-15.57L84.85,4.97z"/>
	<path class="st0" d="M108.63,2.51c4.32,2.73,5.96,6.89,5.96,16.28c0,14.1-2.19,21.37-18.15,21.1V0
		C101.86,0,105.85,0.77,108.63,2.51z M102.95,33.72c3.82-0.71,5.08-3.72,5.08-14.43c0-9.73-1.37-12.57-5.08-13.12V33.72z"/>
	<path class="st0" d="M133.24,4.97c-4.92,0.98-7.32,3.17-8.2,6.61c-0.27,0.98-0.33,2.24-0.33,4.86v1.2
		c1.75-1.31,3.72-2.35,5.96-3.11l2.46,4.97c-3.34,1.64-5.9,3.33-7.27,5.96c-0.77,1.42-1.09,3.44-1.15,6.18l-0.05,1.97
		c2.9-0.6,5.19-1.86,7.32-5.63l4.75,3.33c-4.65,6.67-9.78,8.63-18.52,8.63v-9.29c0-4.32,1.42-7.87,3.88-10.6h-3.88v-4.37
		c0-9.62,4.75-14.26,12.57-15.57L133.24,4.97z"/>
	<path class="st0" d="M155.27,0c0.93,13.22,0.06,18.85-3.93,21.64l6.06,16.07l-6.56,1.8l-6.23-19.18c3.23-1.26,4.32-3.66,4.32-9.18
		c0-1.37-0.06-3.28-0.16-4.48c-2.02,0-3.77,2.24-4.43,4.7c-0.27,0.98-0.44,2.68-0.44,5.3v22.68h-6.51V10.87
		c0-3.82-0.27-7.76-0.49-10.27l6.5-0.16c0.11,1.37,0.22,3,0.28,4.37C145.82,1.53,149.97,0,155.27,0z"/>
	<path class="st0" d="M178.56,7.32l-0.22-3.44V0.6h6.5v38.75h-6.5V26.67c0-9.89-1.31-15.3-4.86-17.98v30.66h-6.51V0
		C171.35,0.22,175.89,2.24,178.56,7.32z"/>
	<path class="st0" d="M200.6,39.35V23.5c-2.79,0.22-5.14,1.8-5.14,8.42v7.43h-6.5V16.61c0-4.48,1.04-7.65,3.06-10.66
		C194.75,1.91,199.94,0,207.1,0v39.35H200.6z M200.6,6.61c-2.13,0.16-3.66,2.02-4.48,4.86c-0.38,1.31-0.66,3.01-0.66,5.08v4.75
		c0.98-2.4,3.39-3.77,5.14-3.77V6.61z"/>
	<path class="st0" d="M211.22,16.01C211.22,5.25,216.84,0,228.16,0v16.72h-6.06v-10c-2.95,0.93-4.37,2.95-4.37,9.78v17
		c3.66-0.71,6.12-3.5,6.94-9.02l5.68,1.97C227.01,37.76,220.45,40,211.22,40V16.01z"/>
	<path class="st0" d="M239.04,39.35h-6.51V0.6h6.51v17.16c1.04-1.48,2.46-2.57,4.59-2.73V0.6h6.51v38.75h-6.51v-18.2
		c-2.18,0.11-3.77,1.8-4.26,4.21c-0.22,1.09-0.32,2.51-0.32,4.81V39.35z"/>
	<path class="st0" d="M264.46,39.35h-6.77V6.06h-5.09V0.6h16.94v5.46h-5.09V39.35z"/>
</g>
</svg>
